<svg width="1440" height="100" viewBox="0 0 1440 100" fill="none" xmlns="http://www.w3.org/2000/svg">
<g filter="url(#filter0_di)">
<line x1="282" y1="45" x2="714" y2="45" stroke="#38FBFD" stroke-width="2" stroke-dasharray="4 2"/>
</g>
<g filter="url(#filter1_di)">
<line x1="8.74228e-08" y1="45" x2="282" y2="45" stroke="#38FBFD" stroke-width="2" stroke-dasharray="4 2"/>
</g>
<g filter="url(#filter2_di)">
<line x1="1146" y1="46" x2="1440" y2="46" stroke="#38FBFD" stroke-width="2" stroke-dasharray="4 2"/>
</g>
<g filter="url(#filter3_di)">
<line x1="714" y1="46" x2="1146" y2="46" stroke="#38FBFD" stroke-width="2" stroke-dasharray="4 2"/>
</g>
<g filter="url(#filter4_d)">
<g filter="url(#filter5_di)">
<circle cx="282" cy="45.8737" r="12.8864" stroke="#38FBFD" stroke-width="8"/>
</g>
<path d="M283.194 54.8057C278.331 55.4653 273.854 52.0575 273.194 47.1943C272.535 42.331 275.942 37.8538 280.806 37.1943C285.669 36.5347 290.146 39.9425 290.806 44.8057C291.465 49.669 288.058 54.1462 283.194 54.8057Z" fill="url(#paint0_radial)"/>
<path d="M283.194 54.8057C278.331 55.4653 273.854 52.0575 273.194 47.1943C272.535 42.331 275.942 37.8538 280.806 37.1943C285.669 36.5347 290.146 39.9425 290.806 44.8057C291.465 49.669 288.058 54.1462 283.194 54.8057Z" fill="#38FBFD" style="mix-blend-mode:hue"/>
<path d="M283.194 54.8057C278.331 55.4653 273.854 52.0575 273.194 47.1943C272.535 42.331 275.942 37.8538 280.806 37.1943C285.669 36.5347 290.146 39.9425 290.806 44.8057C291.465 49.669 288.058 54.1462 283.194 54.8057Z" fill="white" fill-opacity="0.8" style="mix-blend-mode:overlay"/>
</g>
<g filter="url(#filter6_d)">
<g filter="url(#filter7_di)">
<circle cx="714" cy="46.8737" r="12.8864" stroke="white" stroke-width="8"/>
</g>
<path d="M715.194 55.8057C710.331 56.4653 705.854 53.0575 705.194 48.1943C704.535 43.331 707.942 38.8538 712.806 38.1943C717.669 37.5347 722.146 40.9425 722.806 45.8057C723.465 50.669 720.058 55.1462 715.194 55.8057Z" fill="url(#paint1_radial)"/>
<path d="M715.194 55.8057C710.331 56.4653 705.854 53.0575 705.194 48.1943C704.535 43.331 707.942 38.8538 712.806 38.1943C717.669 37.5347 722.146 40.9425 722.806 45.8057C723.465 50.669 720.058 55.1462 715.194 55.8057Z" fill="white" style="mix-blend-mode:hue"/>
<path d="M715.194 55.8057C710.331 56.4653 705.854 53.0575 705.194 48.1943C704.535 43.331 707.942 38.8538 712.806 38.1943C717.669 37.5347 722.146 40.9425 722.806 45.8057C723.465 50.669 720.058 55.1462 715.194 55.8057Z" fill="white" fill-opacity="0.8" style="mix-blend-mode:overlay"/>
</g>
<g filter="url(#filter8_d)">
<g filter="url(#filter9_di)">
<circle cx="1146" cy="46.8737" r="12.8864" stroke="white" stroke-width="8"/>
</g>
<path d="M1147.19 55.8057C1142.33 56.4653 1137.85 53.0575 1137.19 48.1943C1136.53 43.331 1139.94 38.8538 1144.81 38.1943C1149.67 37.5347 1154.15 40.9425 1154.81 45.8057C1155.47 50.669 1152.06 55.1462 1147.19 55.8057Z" fill="url(#paint2_radial)"/>
<path d="M1147.19 55.8057C1142.33 56.4653 1137.85 53.0575 1137.19 48.1943C1136.53 43.331 1139.94 38.8538 1144.81 38.1943C1149.67 37.5347 1154.15 40.9425 1154.81 45.8057C1155.47 50.669 1152.06 55.1462 1147.19 55.8057Z" fill="white" style="mix-blend-mode:hue"/>
<path d="M1147.19 55.8057C1142.33 56.4653 1137.85 53.0575 1137.19 48.1943C1136.53 43.331 1139.94 38.8538 1144.81 38.1943C1149.67 37.5347 1154.15 40.9425 1154.81 45.8057C1155.47 50.669 1152.06 55.1462 1147.19 55.8057Z" fill="white" fill-opacity="0.8" style="mix-blend-mode:overlay"/>
</g>
<g filter="url(#filter10_d)">
<path d="M231.214 89V76.4H237.163C237.589 76.4 238.063 76.436 238.585 76.508C239.107 76.574 239.629 76.7 240.151 76.886C240.673 77.066 241.153 77.327 241.591 77.669C242.035 78.005 242.389 78.44 242.653 78.974C242.923 79.508 243.058 80.162 243.058 80.936C243.058 81.71 242.923 82.367 242.653 82.907C242.389 83.441 242.038 83.876 241.6 84.212C241.162 84.548 240.679 84.809 240.151 84.995C239.629 85.181 239.107 85.31 238.585 85.382C238.063 85.454 237.589 85.49 237.163 85.49H234.751V89H231.214ZM234.751 82.952H236.938C237.286 82.952 237.61 82.916 237.91 82.844C238.21 82.772 238.471 82.658 238.693 82.502C238.921 82.346 239.095 82.139 239.215 81.881C239.341 81.623 239.404 81.311 239.404 80.945C239.404 80.573 239.341 80.261 239.215 80.009C239.095 79.751 238.921 79.544 238.693 79.388C238.471 79.226 238.21 79.109 237.91 79.037C237.616 78.965 237.292 78.929 236.938 78.929H234.751V82.952ZM246.262 89V76.4H249.79V81.17H255.235V76.4H258.754V89H255.235V83.717H249.79V89H246.262ZM274.9 89H271.237L270.526 86.309H265.774L265.054 89H261.4L265.18 76.4H271.12L274.9 89ZM267.682 78.92L266.413 83.816H269.878L268.618 78.92H267.682ZM283.38 89.198C282.432 89.198 281.532 89.099 280.68 88.901C279.828 88.703 279.084 88.436 278.448 88.1C277.812 87.764 277.335 87.386 277.017 86.966L279.915 85.013C280.101 85.241 280.368 85.475 280.716 85.715C281.064 85.955 281.484 86.159 281.976 86.327C282.474 86.489 283.035 86.57 283.659 86.57C284.205 86.57 284.688 86.534 285.108 86.462C285.534 86.384 285.867 86.267 286.107 86.111C286.347 85.955 286.467 85.751 286.467 85.499C286.467 85.325 286.392 85.163 286.242 85.013C286.098 84.863 285.879 84.728 285.585 84.608C285.291 84.488 284.925 84.377 284.487 84.275C284.055 84.167 283.551 84.068 282.975 83.978C282.285 83.852 281.619 83.696 280.977 83.51C280.341 83.318 279.771 83.072 279.267 82.772C278.763 82.466 278.364 82.085 278.07 81.629C277.776 81.173 277.629 80.621 277.629 79.973C277.629 79.427 277.752 78.95 277.998 78.542C278.25 78.134 278.592 77.786 279.024 77.498C279.462 77.21 279.957 76.979 280.509 76.805C281.061 76.625 281.643 76.496 282.255 76.418C282.873 76.334 283.485 76.292 284.091 76.292C284.937 76.292 285.744 76.379 286.512 76.553C287.28 76.727 287.958 76.955 288.546 77.237C289.134 77.513 289.572 77.813 289.86 78.137L286.98 80.099C286.794 79.889 286.548 79.697 286.242 79.523C285.942 79.343 285.591 79.199 285.189 79.091C284.787 78.977 284.337 78.92 283.839 78.92C283.503 78.92 283.185 78.941 282.885 78.983C282.591 79.019 282.33 79.079 282.102 79.163C281.88 79.247 281.706 79.352 281.58 79.478C281.454 79.604 281.391 79.751 281.391 79.919C281.391 80.135 281.496 80.324 281.706 80.486C281.922 80.648 282.249 80.792 282.687 80.918C283.125 81.044 283.68 81.164 284.352 81.278C284.856 81.368 285.378 81.473 285.918 81.593C286.464 81.713 286.992 81.866 287.502 82.052C288.018 82.232 288.48 82.46 288.888 82.736C289.296 83.012 289.62 83.351 289.86 83.753C290.106 84.155 290.229 84.638 290.229 85.202C290.229 85.826 290.091 86.366 289.815 86.822C289.539 87.272 289.167 87.65 288.699 87.956C288.231 88.262 287.7 88.505 287.106 88.685C286.518 88.865 285.903 88.994 285.261 89.072C284.619 89.156 283.992 89.198 283.38 89.198ZM293.469 89V76.4H305.376V78.92H296.988V81.557H304.458V84.059H296.988V86.48H305.376V89H293.469ZM322.029 89V86.48H325.647V79.397L322.101 80.36V77.552L326.07 76.4H329.13V86.48H332.748V89H322.029Z" fill="#38FBFD"/>
</g>
<g filter="url(#filter11_d)">
<path d="M663.214 89V76.4H669.163C669.589 76.4 670.063 76.436 670.585 76.508C671.107 76.574 671.629 76.7 672.151 76.886C672.673 77.066 673.153 77.327 673.591 77.669C674.035 78.005 674.389 78.44 674.653 78.974C674.923 79.508 675.058 80.162 675.058 80.936C675.058 81.71 674.923 82.367 674.653 82.907C674.389 83.441 674.038 83.876 673.6 84.212C673.162 84.548 672.679 84.809 672.151 84.995C671.629 85.181 671.107 85.31 670.585 85.382C670.063 85.454 669.589 85.49 669.163 85.49H666.751V89H663.214ZM666.751 82.952H668.938C669.286 82.952 669.61 82.916 669.91 82.844C670.21 82.772 670.471 82.658 670.693 82.502C670.921 82.346 671.095 82.139 671.215 81.881C671.341 81.623 671.404 81.311 671.404 80.945C671.404 80.573 671.341 80.261 671.215 80.009C671.095 79.751 670.921 79.544 670.693 79.388C670.471 79.226 670.21 79.109 669.91 79.037C669.616 78.965 669.292 78.929 668.938 78.929H666.751V82.952ZM678.262 89V76.4H681.79V81.17H687.235V76.4H690.754V89H687.235V83.717H681.79V89H678.262ZM706.9 89H703.237L702.526 86.309H697.774L697.054 89H693.4L697.18 76.4H703.12L706.9 89ZM699.682 78.92L698.413 83.816H701.878L700.618 78.92H699.682ZM715.38 89.198C714.432 89.198 713.532 89.099 712.68 88.901C711.828 88.703 711.084 88.436 710.448 88.1C709.812 87.764 709.335 87.386 709.017 86.966L711.915 85.013C712.101 85.241 712.368 85.475 712.716 85.715C713.064 85.955 713.484 86.159 713.976 86.327C714.474 86.489 715.035 86.57 715.659 86.57C716.205 86.57 716.688 86.534 717.108 86.462C717.534 86.384 717.867 86.267 718.107 86.111C718.347 85.955 718.467 85.751 718.467 85.499C718.467 85.325 718.392 85.163 718.242 85.013C718.098 84.863 717.879 84.728 717.585 84.608C717.291 84.488 716.925 84.377 716.487 84.275C716.055 84.167 715.551 84.068 714.975 83.978C714.285 83.852 713.619 83.696 712.977 83.51C712.341 83.318 711.771 83.072 711.267 82.772C710.763 82.466 710.364 82.085 710.07 81.629C709.776 81.173 709.629 80.621 709.629 79.973C709.629 79.427 709.752 78.95 709.998 78.542C710.25 78.134 710.592 77.786 711.024 77.498C711.462 77.21 711.957 76.979 712.509 76.805C713.061 76.625 713.643 76.496 714.255 76.418C714.873 76.334 715.485 76.292 716.091 76.292C716.937 76.292 717.744 76.379 718.512 76.553C719.28 76.727 719.958 76.955 720.546 77.237C721.134 77.513 721.572 77.813 721.86 78.137L718.98 80.099C718.794 79.889 718.548 79.697 718.242 79.523C717.942 79.343 717.591 79.199 717.189 79.091C716.787 78.977 716.337 78.92 715.839 78.92C715.503 78.92 715.185 78.941 714.885 78.983C714.591 79.019 714.33 79.079 714.102 79.163C713.88 79.247 713.706 79.352 713.58 79.478C713.454 79.604 713.391 79.751 713.391 79.919C713.391 80.135 713.496 80.324 713.706 80.486C713.922 80.648 714.249 80.792 714.687 80.918C715.125 81.044 715.68 81.164 716.352 81.278C716.856 81.368 717.378 81.473 717.918 81.593C718.464 81.713 718.992 81.866 719.502 82.052C720.018 82.232 720.48 82.46 720.888 82.736C721.296 83.012 721.62 83.351 721.86 83.753C722.106 84.155 722.229 84.638 722.229 85.202C722.229 85.826 722.091 86.366 721.815 86.822C721.539 87.272 721.167 87.65 720.699 87.956C720.231 88.262 719.7 88.505 719.106 88.685C718.518 88.865 717.903 88.994 717.261 89.072C716.619 89.156 715.992 89.198 715.38 89.198ZM725.469 89V76.4H737.376V78.92H728.988V81.557H736.458V84.059H728.988V86.48H737.376V89H725.469ZM753.606 89V86.525C753.786 86.423 754.062 86.276 754.434 86.084C754.806 85.886 755.235 85.655 755.721 85.391C756.213 85.121 756.726 84.827 757.26 84.509C757.794 84.185 758.316 83.849 758.826 83.501C759.336 83.153 759.795 82.802 760.203 82.448C760.617 82.094 760.944 81.749 761.184 81.413C761.43 81.071 761.553 80.75 761.553 80.45C761.553 80.132 761.49 79.871 761.364 79.667C761.244 79.457 761.079 79.295 760.869 79.181C760.659 79.061 760.416 78.977 760.14 78.929C759.87 78.881 759.582 78.857 759.276 78.857C758.796 78.857 758.358 78.953 757.962 79.145C757.572 79.337 757.233 79.577 756.945 79.865C756.657 80.153 756.438 80.447 756.288 80.747L753.363 79.163C753.603 78.641 754.011 78.164 754.587 77.732C755.163 77.294 755.859 76.946 756.675 76.688C757.497 76.424 758.394 76.292 759.366 76.292C760.164 76.292 760.914 76.367 761.616 76.517C762.318 76.661 762.933 76.898 763.461 77.228C763.995 77.552 764.412 77.978 764.712 78.506C765.012 79.028 765.162 79.667 765.162 80.423C765.162 80.909 765.03 81.389 764.766 81.863C764.502 82.331 764.157 82.781 763.731 83.213C763.311 83.645 762.855 84.047 762.363 84.419C761.871 84.791 761.394 85.121 760.932 85.409C760.47 85.697 760.068 85.931 759.726 86.111C759.39 86.291 759.162 86.411 759.042 86.471H765.054V89H753.606Z" fill="#38FBFD"/>
</g>
<g filter="url(#filter12_d)">
<path d="M1106.21 89V76.4H1112.16C1112.59 76.4 1113.06 76.436 1113.59 76.508C1114.11 76.574 1114.63 76.7 1115.15 76.886C1115.67 77.066 1116.15 77.327 1116.59 77.669C1117.04 78.005 1117.39 78.44 1117.65 78.974C1117.92 79.508 1118.06 80.162 1118.06 80.936C1118.06 81.71 1117.92 82.367 1117.65 82.907C1117.39 83.441 1117.04 83.876 1116.6 84.212C1116.16 84.548 1115.68 84.809 1115.15 84.995C1114.63 85.181 1114.11 85.31 1113.59 85.382C1113.06 85.454 1112.59 85.49 1112.16 85.49H1109.75V89H1106.21ZM1109.75 82.952H1111.94C1112.29 82.952 1112.61 82.916 1112.91 82.844C1113.21 82.772 1113.47 82.658 1113.69 82.502C1113.92 82.346 1114.1 82.139 1114.22 81.881C1114.34 81.623 1114.4 81.311 1114.4 80.945C1114.4 80.573 1114.34 80.261 1114.22 80.009C1114.1 79.751 1113.92 79.544 1113.69 79.388C1113.47 79.226 1113.21 79.109 1112.91 79.037C1112.62 78.965 1112.29 78.929 1111.94 78.929H1109.75V82.952ZM1121.26 89V76.4H1124.79V81.17H1130.24V76.4H1133.75V89H1130.24V83.717H1124.79V89H1121.26ZM1149.9 89H1146.24L1145.53 86.309H1140.77L1140.05 89H1136.4L1140.18 76.4H1146.12L1149.9 89ZM1142.68 78.92L1141.41 83.816H1144.88L1143.62 78.92H1142.68ZM1158.38 89.198C1157.43 89.198 1156.53 89.099 1155.68 88.901C1154.83 88.703 1154.08 88.436 1153.45 88.1C1152.81 87.764 1152.33 87.386 1152.02 86.966L1154.91 85.013C1155.1 85.241 1155.37 85.475 1155.72 85.715C1156.06 85.955 1156.48 86.159 1156.98 86.327C1157.47 86.489 1158.03 86.57 1158.66 86.57C1159.2 86.57 1159.69 86.534 1160.11 86.462C1160.53 86.384 1160.87 86.267 1161.11 86.111C1161.35 85.955 1161.47 85.751 1161.47 85.499C1161.47 85.325 1161.39 85.163 1161.24 85.013C1161.1 84.863 1160.88 84.728 1160.58 84.608C1160.29 84.488 1159.92 84.377 1159.49 84.275C1159.05 84.167 1158.55 84.068 1157.97 83.978C1157.28 83.852 1156.62 83.696 1155.98 83.51C1155.34 83.318 1154.77 83.072 1154.27 82.772C1153.76 82.466 1153.36 82.085 1153.07 81.629C1152.78 81.173 1152.63 80.621 1152.63 79.973C1152.63 79.427 1152.75 78.95 1153 78.542C1153.25 78.134 1153.59 77.786 1154.02 77.498C1154.46 77.21 1154.96 76.979 1155.51 76.805C1156.06 76.625 1156.64 76.496 1157.25 76.418C1157.87 76.334 1158.48 76.292 1159.09 76.292C1159.94 76.292 1160.74 76.379 1161.51 76.553C1162.28 76.727 1162.96 76.955 1163.55 77.237C1164.13 77.513 1164.57 77.813 1164.86 78.137L1161.98 80.099C1161.79 79.889 1161.55 79.697 1161.24 79.523C1160.94 79.343 1160.59 79.199 1160.19 79.091C1159.79 78.977 1159.34 78.92 1158.84 78.92C1158.5 78.92 1158.18 78.941 1157.88 78.983C1157.59 79.019 1157.33 79.079 1157.1 79.163C1156.88 79.247 1156.71 79.352 1156.58 79.478C1156.45 79.604 1156.39 79.751 1156.39 79.919C1156.39 80.135 1156.5 80.324 1156.71 80.486C1156.92 80.648 1157.25 80.792 1157.69 80.918C1158.12 81.044 1158.68 81.164 1159.35 81.278C1159.86 81.368 1160.38 81.473 1160.92 81.593C1161.46 81.713 1161.99 81.866 1162.5 82.052C1163.02 82.232 1163.48 82.46 1163.89 82.736C1164.3 83.012 1164.62 83.351 1164.86 83.753C1165.11 84.155 1165.23 84.638 1165.23 85.202C1165.23 85.826 1165.09 86.366 1164.81 86.822C1164.54 87.272 1164.17 87.65 1163.7 87.956C1163.23 88.262 1162.7 88.505 1162.11 88.685C1161.52 88.865 1160.9 88.994 1160.26 89.072C1159.62 89.156 1158.99 89.198 1158.38 89.198ZM1168.47 89V76.4H1180.38V78.92H1171.99V81.557H1179.46V84.059H1171.99V86.48H1180.38V89H1168.47ZM1202.47 89.198C1201.45 89.198 1200.52 89.087 1199.68 88.865C1198.85 88.643 1198.15 88.328 1197.57 87.92C1196.99 87.512 1196.58 87.038 1196.33 86.498L1199.36 85.013C1199.55 85.337 1199.78 85.619 1200.07 85.859C1200.37 86.093 1200.71 86.276 1201.12 86.408C1201.52 86.534 1201.98 86.597 1202.5 86.597C1203.04 86.597 1203.52 86.537 1203.95 86.417C1204.38 86.297 1204.71 86.105 1204.95 85.841C1205.19 85.571 1205.31 85.214 1205.31 84.77C1205.31 84.44 1205.24 84.167 1205.09 83.951C1204.96 83.729 1204.77 83.555 1204.54 83.429C1204.31 83.297 1204.06 83.204 1203.78 83.15C1203.51 83.09 1203.25 83.06 1202.99 83.06C1202.75 83.06 1202.51 83.084 1202.27 83.132C1202.02 83.174 1201.79 83.234 1201.57 83.312C1201.36 83.384 1201.18 83.459 1201.03 83.537L1199.24 81.341L1203.27 78.92H1197.04V76.4H1208.03V78.92L1203.52 81.539C1203.63 81.461 1203.82 81.389 1204.09 81.323C1204.35 81.251 1204.63 81.215 1204.94 81.215C1205.41 81.215 1205.87 81.281 1206.32 81.413C1206.77 81.539 1207.18 81.74 1207.55 82.016C1207.92 82.286 1208.21 82.64 1208.42 83.078C1208.65 83.51 1208.76 84.035 1208.76 84.653C1208.76 85.439 1208.59 86.117 1208.24 86.687C1207.9 87.257 1207.43 87.728 1206.84 88.1C1206.25 88.472 1205.58 88.748 1204.83 88.928C1204.08 89.108 1203.3 89.198 1202.47 89.198Z" fill="#38FBFD"/>
</g>
<g filter="url(#filter13_d)">
<path d="M319.327 28.375V24.64H322.414V26.134L322.054 25.954H326.986V28.375H319.327ZM320.848 25.198C320.164 25.198 319.477 25.126 318.787 24.982C318.097 24.832 317.44 24.601 316.816 24.289C316.192 23.971 315.637 23.56 315.151 23.056C314.671 22.552 314.29 21.943 314.008 21.229C313.726 20.515 313.585 19.684 313.585 18.736C313.585 17.794 313.726 16.966 314.008 16.252C314.29 15.538 314.671 14.929 315.151 14.425C315.637 13.921 316.192 13.513 316.816 13.201C317.44 12.889 318.097 12.661 318.787 12.517C319.477 12.367 320.164 12.292 320.848 12.292C321.532 12.292 322.219 12.364 322.909 12.508C323.599 12.652 324.253 12.883 324.871 13.201C325.495 13.513 326.047 13.921 326.527 14.425C327.007 14.929 327.385 15.538 327.661 16.252C327.943 16.966 328.084 17.794 328.084 18.736C328.084 19.684 327.943 20.515 327.661 21.229C327.385 21.943 327.007 22.552 326.527 23.056C326.047 23.56 325.495 23.971 324.871 24.289C324.253 24.601 323.599 24.832 322.909 24.982C322.219 25.126 321.532 25.198 320.848 25.198ZM320.848 22.624C321.262 22.624 321.679 22.558 322.099 22.426C322.519 22.294 322.906 22.078 323.26 21.778C323.62 21.478 323.908 21.079 324.124 20.581C324.34 20.083 324.448 19.468 324.448 18.736C324.448 18.01 324.34 17.398 324.124 16.9C323.908 16.402 323.62 16.003 323.26 15.703C322.906 15.403 322.519 15.187 322.099 15.055C321.679 14.923 321.262 14.857 320.848 14.857C320.44 14.857 320.023 14.923 319.597 15.055C319.171 15.187 318.778 15.403 318.418 15.703C318.064 16.003 317.776 16.402 317.554 16.9C317.338 17.398 317.23 18.01 317.23 18.736C317.23 19.468 317.338 20.083 317.554 20.581C317.776 21.079 318.064 21.478 318.418 21.778C318.778 22.078 319.171 22.294 319.597 22.426C320.023 22.558 320.44 22.624 320.848 22.624ZM337.453 25V22.624H330.271V20.104L335.05 12.4H340.909V20.104H343.402V22.624H340.909V25H337.453ZM333.907 20.104H337.453V14.668H337.075L333.907 20.104ZM361.91 10.978L363.278 12.58C363.032 12.7 362.813 12.835 362.621 12.985C362.429 13.129 362.279 13.309 362.171 13.525C362.063 13.735 362.009 14.005 362.009 14.335L359.759 14.29C359.759 13.654 359.879 13.117 360.119 12.679C360.359 12.235 360.644 11.875 360.974 11.599C361.31 11.317 361.622 11.11 361.91 10.978ZM363.269 14.29V17.368H359.759V14.29H363.269ZM367.814 25V22.525C367.994 22.423 368.27 22.276 368.642 22.084C369.014 21.886 369.443 21.655 369.929 21.391C370.421 21.121 370.934 20.827 371.468 20.509C372.002 20.185 372.524 19.849 373.034 19.501C373.544 19.153 374.003 18.802 374.411 18.448C374.825 18.094 375.152 17.749 375.392 17.413C375.638 17.071 375.761 16.75 375.761 16.45C375.761 16.132 375.698 15.871 375.572 15.667C375.452 15.457 375.287 15.295 375.077 15.181C374.867 15.061 374.624 14.977 374.348 14.929C374.078 14.881 373.79 14.857 373.484 14.857C373.004 14.857 372.566 14.953 372.17 15.145C371.78 15.337 371.441 15.577 371.153 15.865C370.865 16.153 370.646 16.447 370.496 16.747L367.571 15.163C367.811 14.641 368.219 14.164 368.795 13.732C369.371 13.294 370.067 12.946 370.883 12.688C371.705 12.424 372.602 12.292 373.574 12.292C374.372 12.292 375.122 12.367 375.824 12.517C376.526 12.661 377.141 12.898 377.669 13.228C378.203 13.552 378.62 13.978 378.92 14.506C379.22 15.028 379.37 15.667 379.37 16.423C379.37 16.909 379.238 17.389 378.974 17.863C378.71 18.331 378.365 18.781 377.939 19.213C377.519 19.645 377.063 20.047 376.571 20.419C376.079 20.791 375.602 21.121 375.14 21.409C374.678 21.697 374.276 21.931 373.934 22.111C373.598 22.291 373.37 22.411 373.25 22.471H379.262V25H367.814ZM383.987 25V22.48H387.605V15.397L384.059 16.36V13.552L388.028 12.4H391.088V22.48H394.706V25H383.987Z" fill="#38FBFD"/>
</g>
<g filter="url(#filter14_d)">
<path d="M484.327 28.375V24.64H487.414V26.134L487.054 25.954H491.986V28.375H484.327ZM485.848 25.198C485.164 25.198 484.477 25.126 483.787 24.982C483.097 24.832 482.44 24.601 481.816 24.289C481.192 23.971 480.637 23.56 480.151 23.056C479.671 22.552 479.29 21.943 479.008 21.229C478.726 20.515 478.585 19.684 478.585 18.736C478.585 17.794 478.726 16.966 479.008 16.252C479.29 15.538 479.671 14.929 480.151 14.425C480.637 13.921 481.192 13.513 481.816 13.201C482.44 12.889 483.097 12.661 483.787 12.517C484.477 12.367 485.164 12.292 485.848 12.292C486.532 12.292 487.219 12.364 487.909 12.508C488.599 12.652 489.253 12.883 489.871 13.201C490.495 13.513 491.047 13.921 491.527 14.425C492.007 14.929 492.385 15.538 492.661 16.252C492.943 16.966 493.084 17.794 493.084 18.736C493.084 19.684 492.943 20.515 492.661 21.229C492.385 21.943 492.007 22.552 491.527 23.056C491.047 23.56 490.495 23.971 489.871 24.289C489.253 24.601 488.599 24.832 487.909 24.982C487.219 25.126 486.532 25.198 485.848 25.198ZM485.848 22.624C486.262 22.624 486.679 22.558 487.099 22.426C487.519 22.294 487.906 22.078 488.26 21.778C488.62 21.478 488.908 21.079 489.124 20.581C489.34 20.083 489.448 19.468 489.448 18.736C489.448 18.01 489.34 17.398 489.124 16.9C488.908 16.402 488.62 16.003 488.26 15.703C487.906 15.403 487.519 15.187 487.099 15.055C486.679 14.923 486.262 14.857 485.848 14.857C485.44 14.857 485.023 14.923 484.597 15.055C484.171 15.187 483.778 15.403 483.418 15.703C483.064 16.003 482.776 16.402 482.554 16.9C482.338 17.398 482.23 18.01 482.23 18.736C482.23 19.468 482.338 20.083 482.554 20.581C482.776 21.079 483.064 21.478 483.418 21.778C483.778 22.078 484.171 22.294 484.597 22.426C485.023 22.558 485.44 22.624 485.848 22.624ZM495.883 25V22.48H499.501V15.397L495.955 16.36V13.552L499.924 12.4H502.984V22.48H506.602V25H495.883ZM526.91 10.978L528.278 12.58C528.032 12.7 527.813 12.835 527.621 12.985C527.429 13.129 527.279 13.309 527.171 13.525C527.063 13.735 527.009 14.005 527.009 14.335L524.759 14.29C524.759 13.654 524.879 13.117 525.119 12.679C525.359 12.235 525.644 11.875 525.974 11.599C526.31 11.317 526.622 11.11 526.91 10.978ZM528.269 14.29V17.368H524.759V14.29H528.269ZM532.814 25V22.525C532.994 22.423 533.27 22.276 533.642 22.084C534.014 21.886 534.443 21.655 534.929 21.391C535.421 21.121 535.934 20.827 536.468 20.509C537.002 20.185 537.524 19.849 538.034 19.501C538.544 19.153 539.003 18.802 539.411 18.448C539.825 18.094 540.152 17.749 540.392 17.413C540.638 17.071 540.761 16.75 540.761 16.45C540.761 16.132 540.698 15.871 540.572 15.667C540.452 15.457 540.287 15.295 540.077 15.181C539.867 15.061 539.624 14.977 539.348 14.929C539.078 14.881 538.79 14.857 538.484 14.857C538.004 14.857 537.566 14.953 537.17 15.145C536.78 15.337 536.441 15.577 536.153 15.865C535.865 16.153 535.646 16.447 535.496 16.747L532.571 15.163C532.811 14.641 533.219 14.164 533.795 13.732C534.371 13.294 535.067 12.946 535.883 12.688C536.705 12.424 537.602 12.292 538.574 12.292C539.372 12.292 540.122 12.367 540.824 12.517C541.526 12.661 542.141 12.898 542.669 13.228C543.203 13.552 543.62 13.978 543.92 14.506C544.22 15.028 544.37 15.667 544.37 16.423C544.37 16.909 544.238 17.389 543.974 17.863C543.71 18.331 543.365 18.781 542.939 19.213C542.519 19.645 542.063 20.047 541.571 20.419C541.079 20.791 540.602 21.121 540.14 21.409C539.678 21.697 539.276 21.931 538.934 22.111C538.598 22.291 538.37 22.411 538.25 22.471H544.262V25H532.814ZM548.564 25V22.525C548.744 22.423 549.02 22.276 549.392 22.084C549.764 21.886 550.193 21.655 550.679 21.391C551.171 21.121 551.684 20.827 552.218 20.509C552.752 20.185 553.274 19.849 553.784 19.501C554.294 19.153 554.753 18.802 555.161 18.448C555.575 18.094 555.902 17.749 556.142 17.413C556.388 17.071 556.511 16.75 556.511 16.45C556.511 16.132 556.448 15.871 556.322 15.667C556.202 15.457 556.037 15.295 555.827 15.181C555.617 15.061 555.374 14.977 555.098 14.929C554.828 14.881 554.54 14.857 554.234 14.857C553.754 14.857 553.316 14.953 552.92 15.145C552.53 15.337 552.191 15.577 551.903 15.865C551.615 16.153 551.396 16.447 551.246 16.747L548.321 15.163C548.561 14.641 548.969 14.164 549.545 13.732C550.121 13.294 550.817 12.946 551.633 12.688C552.455 12.424 553.352 12.292 554.324 12.292C555.122 12.292 555.872 12.367 556.574 12.517C557.276 12.661 557.891 12.898 558.419 13.228C558.953 13.552 559.37 13.978 559.67 14.506C559.97 15.028 560.12 15.667 560.12 16.423C560.12 16.909 559.988 17.389 559.724 17.863C559.46 18.331 559.115 18.781 558.689 19.213C558.269 19.645 557.813 20.047 557.321 20.419C556.829 20.791 556.352 21.121 555.89 21.409C555.428 21.697 555.026 21.931 554.684 22.111C554.348 22.291 554.12 22.411 554 22.471H560.012V25H548.564Z" fill="#38FBFD"/>
</g>
<g filter="url(#filter15_d)">
<path d="M678.327 28.375V24.64H681.414V26.134L681.054 25.954H685.986V28.375H678.327ZM679.848 25.198C679.164 25.198 678.477 25.126 677.787 24.982C677.097 24.832 676.44 24.601 675.816 24.289C675.192 23.971 674.637 23.56 674.151 23.056C673.671 22.552 673.29 21.943 673.008 21.229C672.726 20.515 672.585 19.684 672.585 18.736C672.585 17.794 672.726 16.966 673.008 16.252C673.29 15.538 673.671 14.929 674.151 14.425C674.637 13.921 675.192 13.513 675.816 13.201C676.44 12.889 677.097 12.661 677.787 12.517C678.477 12.367 679.164 12.292 679.848 12.292C680.532 12.292 681.219 12.364 681.909 12.508C682.599 12.652 683.253 12.883 683.871 13.201C684.495 13.513 685.047 13.921 685.527 14.425C686.007 14.929 686.385 15.538 686.661 16.252C686.943 16.966 687.084 17.794 687.084 18.736C687.084 19.684 686.943 20.515 686.661 21.229C686.385 21.943 686.007 22.552 685.527 23.056C685.047 23.56 684.495 23.971 683.871 24.289C683.253 24.601 682.599 24.832 681.909 24.982C681.219 25.126 680.532 25.198 679.848 25.198ZM679.848 22.624C680.262 22.624 680.679 22.558 681.099 22.426C681.519 22.294 681.906 22.078 682.26 21.778C682.62 21.478 682.908 21.079 683.124 20.581C683.34 20.083 683.448 19.468 683.448 18.736C683.448 18.01 683.34 17.398 683.124 16.9C682.908 16.402 682.62 16.003 682.26 15.703C681.906 15.403 681.519 15.187 681.099 15.055C680.679 14.923 680.262 14.857 679.848 14.857C679.44 14.857 679.023 14.923 678.597 15.055C678.171 15.187 677.778 15.403 677.418 15.703C677.064 16.003 676.776 16.402 676.554 16.9C676.338 17.398 676.23 18.01 676.23 18.736C676.23 19.468 676.338 20.083 676.554 20.581C676.776 21.079 677.064 21.478 677.418 21.778C677.778 22.078 678.171 22.294 678.597 22.426C679.023 22.558 679.44 22.624 679.848 22.624ZM689.46 25V22.525C689.64 22.423 689.916 22.276 690.288 22.084C690.66 21.886 691.089 21.655 691.575 21.391C692.067 21.121 692.58 20.827 693.114 20.509C693.648 20.185 694.17 19.849 694.68 19.501C695.19 19.153 695.649 18.802 696.057 18.448C696.471 18.094 696.798 17.749 697.038 17.413C697.284 17.071 697.407 16.75 697.407 16.45C697.407 16.132 697.344 15.871 697.218 15.667C697.098 15.457 696.933 15.295 696.723 15.181C696.513 15.061 696.27 14.977 695.994 14.929C695.724 14.881 695.436 14.857 695.13 14.857C694.65 14.857 694.212 14.953 693.816 15.145C693.426 15.337 693.087 15.577 692.799 15.865C692.511 16.153 692.292 16.447 692.142 16.747L689.217 15.163C689.457 14.641 689.865 14.164 690.441 13.732C691.017 13.294 691.713 12.946 692.529 12.688C693.351 12.424 694.248 12.292 695.22 12.292C696.018 12.292 696.768 12.367 697.47 12.517C698.172 12.661 698.787 12.898 699.315 13.228C699.849 13.552 700.266 13.978 700.566 14.506C700.866 15.028 701.016 15.667 701.016 16.423C701.016 16.909 700.884 17.389 700.62 17.863C700.356 18.331 700.011 18.781 699.585 19.213C699.165 19.645 698.709 20.047 698.217 20.419C697.725 20.791 697.248 21.121 696.786 21.409C696.324 21.697 695.922 21.931 695.58 22.111C695.244 22.291 695.016 22.411 694.896 22.471H700.908V25H689.46ZM720.91 10.978L722.278 12.58C722.032 12.7 721.813 12.835 721.621 12.985C721.429 13.129 721.279 13.309 721.171 13.525C721.063 13.735 721.009 14.005 721.009 14.335L718.759 14.29C718.759 13.654 718.879 13.117 719.119 12.679C719.359 12.235 719.644 11.875 719.974 11.599C720.31 11.317 720.622 11.11 720.91 10.978ZM722.269 14.29V17.368H718.759V14.29H722.269ZM726.814 25V22.525C726.994 22.423 727.27 22.276 727.642 22.084C728.014 21.886 728.443 21.655 728.929 21.391C729.421 21.121 729.934 20.827 730.468 20.509C731.002 20.185 731.524 19.849 732.034 19.501C732.544 19.153 733.003 18.802 733.411 18.448C733.825 18.094 734.152 17.749 734.392 17.413C734.638 17.071 734.761 16.75 734.761 16.45C734.761 16.132 734.698 15.871 734.572 15.667C734.452 15.457 734.287 15.295 734.077 15.181C733.867 15.061 733.624 14.977 733.348 14.929C733.078 14.881 732.79 14.857 732.484 14.857C732.004 14.857 731.566 14.953 731.17 15.145C730.78 15.337 730.441 15.577 730.153 15.865C729.865 16.153 729.646 16.447 729.496 16.747L726.571 15.163C726.811 14.641 727.219 14.164 727.795 13.732C728.371 13.294 729.067 12.946 729.883 12.688C730.705 12.424 731.602 12.292 732.574 12.292C733.372 12.292 734.122 12.367 734.824 12.517C735.526 12.661 736.141 12.898 736.669 13.228C737.203 13.552 737.62 13.978 737.92 14.506C738.22 15.028 738.37 15.667 738.37 16.423C738.37 16.909 738.238 17.389 737.974 17.863C737.71 18.331 737.365 18.781 736.939 19.213C736.519 19.645 736.063 20.047 735.571 20.419C735.079 20.791 734.602 21.121 734.14 21.409C733.678 21.697 733.276 21.931 732.934 22.111C732.598 22.291 732.37 22.411 732.25 22.471H738.262V25H726.814ZM742.564 25V22.525C742.744 22.423 743.02 22.276 743.392 22.084C743.764 21.886 744.193 21.655 744.679 21.391C745.171 21.121 745.684 20.827 746.218 20.509C746.752 20.185 747.274 19.849 747.784 19.501C748.294 19.153 748.753 18.802 749.161 18.448C749.575 18.094 749.902 17.749 750.142 17.413C750.388 17.071 750.511 16.75 750.511 16.45C750.511 16.132 750.448 15.871 750.322 15.667C750.202 15.457 750.037 15.295 749.827 15.181C749.617 15.061 749.374 14.977 749.098 14.929C748.828 14.881 748.54 14.857 748.234 14.857C747.754 14.857 747.316 14.953 746.92 15.145C746.53 15.337 746.191 15.577 745.903 15.865C745.615 16.153 745.396 16.447 745.246 16.747L742.321 15.163C742.561 14.641 742.969 14.164 743.545 13.732C744.121 13.294 744.817 12.946 745.633 12.688C746.455 12.424 747.352 12.292 748.324 12.292C749.122 12.292 749.872 12.367 750.574 12.517C751.276 12.661 751.891 12.898 752.419 13.228C752.953 13.552 753.37 13.978 753.67 14.506C753.97 15.028 754.12 15.667 754.12 16.423C754.12 16.909 753.988 17.389 753.724 17.863C753.46 18.331 753.115 18.781 752.689 19.213C752.269 19.645 751.813 20.047 751.321 20.419C750.829 20.791 750.352 21.121 749.89 21.409C749.428 21.697 749.026 21.931 748.684 22.111C748.348 22.291 748.12 22.411 748 22.471H754.012V25H742.564Z" fill="#38FBFD"/>
</g>
<g filter="url(#filter16_d)">
<path d="M1110.33 28.375V24.64H1113.41V26.134L1113.05 25.954H1117.99V28.375H1110.33ZM1111.85 25.198C1111.16 25.198 1110.48 25.126 1109.79 24.982C1109.1 24.832 1108.44 24.601 1107.82 24.289C1107.19 23.971 1106.64 23.56 1106.15 23.056C1105.67 22.552 1105.29 21.943 1105.01 21.229C1104.73 20.515 1104.59 19.684 1104.59 18.736C1104.59 17.794 1104.73 16.966 1105.01 16.252C1105.29 15.538 1105.67 14.929 1106.15 14.425C1106.64 13.921 1107.19 13.513 1107.82 13.201C1108.44 12.889 1109.1 12.661 1109.79 12.517C1110.48 12.367 1111.16 12.292 1111.85 12.292C1112.53 12.292 1113.22 12.364 1113.91 12.508C1114.6 12.652 1115.25 12.883 1115.87 13.201C1116.5 13.513 1117.05 13.921 1117.53 14.425C1118.01 14.929 1118.39 15.538 1118.66 16.252C1118.94 16.966 1119.08 17.794 1119.08 18.736C1119.08 19.684 1118.94 20.515 1118.66 21.229C1118.39 21.943 1118.01 22.552 1117.53 23.056C1117.05 23.56 1116.5 23.971 1115.87 24.289C1115.25 24.601 1114.6 24.832 1113.91 24.982C1113.22 25.126 1112.53 25.198 1111.85 25.198ZM1111.85 22.624C1112.26 22.624 1112.68 22.558 1113.1 22.426C1113.52 22.294 1113.91 22.078 1114.26 21.778C1114.62 21.478 1114.91 21.079 1115.12 20.581C1115.34 20.083 1115.45 19.468 1115.45 18.736C1115.45 18.01 1115.34 17.398 1115.12 16.9C1114.91 16.402 1114.62 16.003 1114.26 15.703C1113.91 15.403 1113.52 15.187 1113.1 15.055C1112.68 14.923 1112.26 14.857 1111.85 14.857C1111.44 14.857 1111.02 14.923 1110.6 15.055C1110.17 15.187 1109.78 15.403 1109.42 15.703C1109.06 16.003 1108.78 16.402 1108.55 16.9C1108.34 17.398 1108.23 18.01 1108.23 18.736C1108.23 19.468 1108.34 20.083 1108.55 20.581C1108.78 21.079 1109.06 21.478 1109.42 21.778C1109.78 22.078 1110.17 22.294 1110.6 22.426C1111.02 22.558 1111.44 22.624 1111.85 22.624ZM1128.45 25V22.624H1121.27V20.104L1126.05 12.4H1131.91V20.104H1134.4V22.624H1131.91V25H1128.45ZM1124.91 20.104H1128.45V14.668H1128.08L1124.91 20.104ZM1152.91 10.978L1154.28 12.58C1154.03 12.7 1153.81 12.835 1153.62 12.985C1153.43 13.129 1153.28 13.309 1153.17 13.525C1153.06 13.735 1153.01 14.005 1153.01 14.335L1150.76 14.29C1150.76 13.654 1150.88 13.117 1151.12 12.679C1151.36 12.235 1151.64 11.875 1151.97 11.599C1152.31 11.317 1152.62 11.11 1152.91 10.978ZM1154.27 14.29V17.368H1150.76V14.29H1154.27ZM1158.81 25V22.525C1158.99 22.423 1159.27 22.276 1159.64 22.084C1160.01 21.886 1160.44 21.655 1160.93 21.391C1161.42 21.121 1161.93 20.827 1162.47 20.509C1163 20.185 1163.52 19.849 1164.03 19.501C1164.54 19.153 1165 18.802 1165.41 18.448C1165.82 18.094 1166.15 17.749 1166.39 17.413C1166.64 17.071 1166.76 16.75 1166.76 16.45C1166.76 16.132 1166.7 15.871 1166.57 15.667C1166.45 15.457 1166.29 15.295 1166.08 15.181C1165.87 15.061 1165.62 14.977 1165.35 14.929C1165.08 14.881 1164.79 14.857 1164.48 14.857C1164 14.857 1163.57 14.953 1163.17 15.145C1162.78 15.337 1162.44 15.577 1162.15 15.865C1161.86 16.153 1161.65 16.447 1161.5 16.747L1158.57 15.163C1158.81 14.641 1159.22 14.164 1159.79 13.732C1160.37 13.294 1161.07 12.946 1161.88 12.688C1162.7 12.424 1163.6 12.292 1164.57 12.292C1165.37 12.292 1166.12 12.367 1166.82 12.517C1167.53 12.661 1168.14 12.898 1168.67 13.228C1169.2 13.552 1169.62 13.978 1169.92 14.506C1170.22 15.028 1170.37 15.667 1170.37 16.423C1170.37 16.909 1170.24 17.389 1169.97 17.863C1169.71 18.331 1169.36 18.781 1168.94 19.213C1168.52 19.645 1168.06 20.047 1167.57 20.419C1167.08 20.791 1166.6 21.121 1166.14 21.409C1165.68 21.697 1165.28 21.931 1164.93 22.111C1164.6 22.291 1164.37 22.411 1164.25 22.471H1170.26V25H1158.81ZM1174.56 25V22.525C1174.74 22.423 1175.02 22.276 1175.39 22.084C1175.76 21.886 1176.19 21.655 1176.68 21.391C1177.17 21.121 1177.68 20.827 1178.22 20.509C1178.75 20.185 1179.27 19.849 1179.78 19.501C1180.29 19.153 1180.75 18.802 1181.16 18.448C1181.57 18.094 1181.9 17.749 1182.14 17.413C1182.39 17.071 1182.51 16.75 1182.51 16.45C1182.51 16.132 1182.45 15.871 1182.32 15.667C1182.2 15.457 1182.04 15.295 1181.83 15.181C1181.62 15.061 1181.37 14.977 1181.1 14.929C1180.83 14.881 1180.54 14.857 1180.23 14.857C1179.75 14.857 1179.32 14.953 1178.92 15.145C1178.53 15.337 1178.19 15.577 1177.9 15.865C1177.61 16.153 1177.4 16.447 1177.25 16.747L1174.32 15.163C1174.56 14.641 1174.97 14.164 1175.54 13.732C1176.12 13.294 1176.82 12.946 1177.63 12.688C1178.45 12.424 1179.35 12.292 1180.32 12.292C1181.12 12.292 1181.87 12.367 1182.57 12.517C1183.28 12.661 1183.89 12.898 1184.42 13.228C1184.95 13.552 1185.37 13.978 1185.67 14.506C1185.97 15.028 1186.12 15.667 1186.12 16.423C1186.12 16.909 1185.99 17.389 1185.72 17.863C1185.46 18.331 1185.11 18.781 1184.69 19.213C1184.27 19.645 1183.81 20.047 1183.32 20.419C1182.83 20.791 1182.35 21.121 1181.89 21.409C1181.43 21.697 1181.03 21.931 1180.68 22.111C1180.35 22.291 1180.12 22.411 1180 22.471H1186.01V25H1174.56Z" fill="#38FBFD"/>
</g>
<rect x="333" y="35" width="44" height="20" rx="2" fill="#FFF500"/>
<path d="M339.136 50.196C338.641 50.196 338.198 50.112 337.806 49.944C337.414 49.7667 337.101 49.5147 336.868 49.188C336.644 48.852 336.532 48.446 336.532 47.97C336.532 47.494 336.644 47.0973 336.868 46.78C337.101 46.4533 337.419 46.2107 337.82 46.052C338.231 45.884 338.697 45.8 339.22 45.8H341.124V45.408C341.124 45.0813 341.021 44.8153 340.816 44.61C340.611 44.3953 340.284 44.288 339.836 44.288C339.397 44.288 339.071 44.3907 338.856 44.596C338.641 44.792 338.501 45.0487 338.436 45.366L336.812 44.82C336.924 44.4653 337.101 44.1433 337.344 43.854C337.596 43.5553 337.927 43.3173 338.338 43.14C338.758 42.9533 339.267 42.86 339.864 42.86C340.779 42.86 341.502 43.0887 342.034 43.546C342.566 44.0033 342.832 44.666 342.832 45.534V48.124C342.832 48.404 342.963 48.544 343.224 48.544H343.784V50H342.608C342.263 50 341.978 49.916 341.754 49.748C341.53 49.58 341.418 49.356 341.418 49.076V49.062H341.152C341.115 49.174 341.031 49.3233 340.9 49.51C340.769 49.6873 340.564 49.846 340.284 49.986C340.004 50.126 339.621 50.196 339.136 50.196ZM339.444 48.768C339.939 48.768 340.34 48.6327 340.648 48.362C340.965 48.082 341.124 47.7133 341.124 47.256V47.116H339.346C339.019 47.116 338.763 47.186 338.576 47.326C338.389 47.466 338.296 47.662 338.296 47.914C338.296 48.166 338.394 48.3713 338.59 48.53C338.786 48.6887 339.071 48.768 339.444 48.768ZM345.074 50V40.2H346.838V50H345.074ZM348.793 52.8V43.056H350.529V43.896H350.781C350.939 43.6253 351.187 43.3873 351.523 43.182C351.859 42.9673 352.339 42.86 352.965 42.86C353.525 42.86 354.043 43 354.519 43.28C354.995 43.5507 355.377 43.952 355.667 44.484C355.956 45.016 356.101 45.66 356.101 46.416V46.64C356.101 47.396 355.956 48.04 355.667 48.572C355.377 49.104 354.995 49.51 354.519 49.79C354.043 50.0607 353.525 50.196 352.965 50.196C352.545 50.196 352.19 50.1447 351.901 50.042C351.621 49.9487 351.392 49.8273 351.215 49.678C351.047 49.5193 350.911 49.3607 350.809 49.202H350.557V52.8H348.793ZM352.433 48.656C352.983 48.656 353.436 48.4833 353.791 48.138C354.155 47.7833 354.337 47.27 354.337 46.598V46.458C354.337 45.786 354.155 45.2773 353.791 44.932C353.427 44.5773 352.974 44.4 352.433 44.4C351.891 44.4 351.439 44.5773 351.075 44.932C350.711 45.2773 350.529 45.786 350.529 46.458V46.598C350.529 47.27 350.711 47.7833 351.075 48.138C351.439 48.4833 351.891 48.656 352.433 48.656ZM357.72 50V40.2H359.484V43.91H359.736C359.811 43.7607 359.928 43.6113 360.086 43.462C360.245 43.3127 360.455 43.1913 360.716 43.098C360.987 42.9953 361.328 42.944 361.738 42.944C362.28 42.944 362.751 43.07 363.152 43.322C363.563 43.5647 363.88 43.9053 364.104 44.344C364.328 44.7733 364.44 45.2773 364.44 45.856V50H362.676V45.996C362.676 45.4733 362.546 45.0813 362.284 44.82C362.032 44.5587 361.668 44.428 361.192 44.428C360.651 44.428 360.231 44.61 359.932 44.974C359.634 45.3287 359.484 45.828 359.484 46.472V50H357.72ZM368.503 50.196C368.009 50.196 367.565 50.112 367.173 49.944C366.781 49.7667 366.469 49.5147 366.235 49.188C366.011 48.852 365.899 48.446 365.899 47.97C365.899 47.494 366.011 47.0973 366.235 46.78C366.469 46.4533 366.786 46.2107 367.187 46.052C367.598 45.884 368.065 45.8 368.587 45.8H370.491V45.408C370.491 45.0813 370.389 44.8153 370.183 44.61C369.978 44.3953 369.651 44.288 369.203 44.288C368.765 44.288 368.438 44.3907 368.223 44.596C368.009 44.792 367.869 45.0487 367.803 45.366L366.179 44.82C366.291 44.4653 366.469 44.1433 366.711 43.854C366.963 43.5553 367.295 43.3173 367.705 43.14C368.125 42.9533 368.634 42.86 369.231 42.86C370.146 42.86 370.869 43.0887 371.401 43.546C371.933 44.0033 372.199 44.666 372.199 45.534V48.124C372.199 48.404 372.33 48.544 372.591 48.544H373.151V50H371.975C371.63 50 371.345 49.916 371.121 49.748C370.897 49.58 370.785 49.356 370.785 49.076V49.062H370.519C370.482 49.174 370.398 49.3233 370.267 49.51C370.137 49.6873 369.931 49.846 369.651 49.986C369.371 50.126 368.989 50.196 368.503 50.196ZM368.811 48.768C369.306 48.768 369.707 48.6327 370.015 48.362C370.333 48.082 370.491 47.7133 370.491 47.256V47.116H368.713C368.387 47.116 368.13 47.186 367.943 47.326C367.757 47.466 367.663 47.662 367.663 47.914C367.663 48.166 367.761 48.3713 367.957 48.53C368.153 48.6887 368.438 48.768 368.811 48.768Z" fill="#0B0018"/>
<rect x="498" y="34" width="44" height="20" rx="2" fill="#4200FF"/>
<path d="M509.152 49.196C508.527 49.196 508.046 49.0887 507.71 48.874C507.374 48.6593 507.127 48.4213 506.968 48.16H506.716V49H504.98V39.2H506.744V42.854H506.996C507.099 42.686 507.234 42.5273 507.402 42.378C507.579 42.2287 507.808 42.1073 508.088 42.014C508.377 41.9113 508.732 41.86 509.152 41.86C509.712 41.86 510.23 42 510.706 42.28C511.182 42.5507 511.565 42.952 511.854 43.484C512.143 44.016 512.288 44.66 512.288 45.416V45.64C512.288 46.396 512.143 47.04 511.854 47.572C511.565 48.104 511.182 48.51 510.706 48.79C510.23 49.0607 509.712 49.196 509.152 49.196ZM508.62 47.656C509.161 47.656 509.614 47.4833 509.978 47.138C510.342 46.7833 510.524 46.27 510.524 45.598V45.458C510.524 44.786 510.342 44.2773 509.978 43.932C509.623 43.5773 509.171 43.4 508.62 43.4C508.079 43.4 507.626 43.5773 507.262 43.932C506.898 44.2773 506.716 44.786 506.716 45.458V45.598C506.716 46.27 506.898 46.7833 507.262 47.138C507.626 47.4833 508.079 47.656 508.62 47.656ZM517.072 49.196C516.381 49.196 515.77 49.0513 515.238 48.762C514.715 48.4633 514.304 48.048 514.006 47.516C513.716 46.9747 513.572 46.34 513.572 45.612V45.444C513.572 44.716 513.716 44.086 514.006 43.554C514.295 43.0127 514.701 42.5973 515.224 42.308C515.746 42.0093 516.353 41.86 517.044 41.86C517.725 41.86 518.318 42.014 518.822 42.322C519.326 42.6207 519.718 43.0407 519.998 43.582C520.278 44.114 520.418 44.7347 520.418 45.444V46.046H515.364C515.382 46.522 515.56 46.9093 515.896 47.208C516.232 47.5067 516.642 47.656 517.128 47.656C517.622 47.656 517.986 47.5487 518.22 47.334C518.453 47.1193 518.63 46.8813 518.752 46.62L520.194 47.376C520.063 47.6187 519.872 47.8847 519.62 48.174C519.377 48.454 519.05 48.6967 518.64 48.902C518.229 49.098 517.706 49.196 517.072 49.196ZM515.378 44.73H518.626C518.588 44.3287 518.425 44.0067 518.136 43.764C517.856 43.5213 517.487 43.4 517.03 43.4C516.554 43.4 516.176 43.5213 515.896 43.764C515.616 44.0067 515.443 44.3287 515.378 44.73ZM524.429 49C523.972 49 523.598 48.86 523.309 48.58C523.029 48.2907 522.889 47.908 522.889 47.432V43.512H521.153V42.056H522.889V39.9H524.653V42.056H526.557V43.512H524.653V47.124C524.653 47.404 524.784 47.544 525.045 47.544H526.389V49H524.429ZM530.31 49.196C529.815 49.196 529.372 49.112 528.98 48.944C528.588 48.7667 528.275 48.5147 528.042 48.188C527.818 47.852 527.706 47.446 527.706 46.97C527.706 46.494 527.818 46.0973 528.042 45.78C528.275 45.4533 528.592 45.2107 528.994 45.052C529.404 44.884 529.871 44.8 530.394 44.8H532.298V44.408C532.298 44.0813 532.195 43.8153 531.99 43.61C531.784 43.3953 531.458 43.288 531.01 43.288C530.571 43.288 530.244 43.3907 530.03 43.596C529.815 43.792 529.675 44.0487 529.61 44.366L527.986 43.82C528.098 43.4653 528.275 43.1433 528.518 42.854C528.77 42.5553 529.101 42.3173 529.512 42.14C529.932 41.9533 530.44 41.86 531.038 41.86C531.952 41.86 532.676 42.0887 533.208 42.546C533.74 43.0033 534.006 43.666 534.006 44.534V47.124C534.006 47.404 534.136 47.544 534.398 47.544H534.958V49H533.782C533.436 49 533.152 48.916 532.928 48.748C532.704 48.58 532.592 48.356 532.592 48.076V48.062H532.326C532.288 48.174 532.204 48.3233 532.074 48.51C531.943 48.6873 531.738 48.846 531.458 48.986C531.178 49.126 530.795 49.196 530.31 49.196ZM530.618 47.768C531.112 47.768 531.514 47.6327 531.822 47.362C532.139 47.082 532.298 46.7133 532.298 46.256V46.116H530.52C530.193 46.116 529.936 46.186 529.75 46.326C529.563 46.466 529.47 46.662 529.47 46.914C529.47 47.166 529.568 47.3713 529.764 47.53C529.96 47.6887 530.244 47.768 530.618 47.768Z" fill="white"/>
<defs>
<filter id="filter0_di" x="278" y="39" width="440" height="12" filterUnits="userSpaceOnUse" color-interpolation-filters="sRGB">
<feFlood flood-opacity="0" result="BackgroundImageFix"/>
<feColorMatrix in="SourceAlpha" type="matrix" values="0 0 0 0 0 0 0 0 0 0 0 0 0 0 0 0 0 0 127 0" result="hardAlpha"/>
<feOffset/>
<feGaussianBlur stdDeviation="2"/>
<feColorMatrix type="matrix" values="0 0 0 0 0.219608 0 0 0 0 0.984314 0 0 0 0 0.992157 0 0 0 0.6 0"/>
<feBlend mode="normal" in2="BackgroundImageFix" result="effect1_dropShadow"/>
<feBlend mode="normal" in="SourceGraphic" in2="effect1_dropShadow" result="shape"/>
<feColorMatrix in="SourceAlpha" type="matrix" values="0 0 0 0 0 0 0 0 0 0 0 0 0 0 0 0 0 0 127 0" result="hardAlpha"/>
<feOffset/>
<feGaussianBlur stdDeviation="2"/>
<feComposite in2="hardAlpha" operator="arithmetic" k2="-1" k3="1"/>
<feColorMatrix type="matrix" values="0 0 0 0 0 0 0 0 0 0.256995 0 0 0 0 0.258333 0 0 0 1 0"/>
<feBlend mode="normal" in2="shape" result="effect2_innerShadow"/>
</filter>
<filter id="filter1_di" x="-4" y="39" width="290" height="12" filterUnits="userSpaceOnUse" color-interpolation-filters="sRGB">
<feFlood flood-opacity="0" result="BackgroundImageFix"/>
<feColorMatrix in="SourceAlpha" type="matrix" values="0 0 0 0 0 0 0 0 0 0 0 0 0 0 0 0 0 0 127 0" result="hardAlpha"/>
<feOffset/>
<feGaussianBlur stdDeviation="2"/>
<feColorMatrix type="matrix" values="0 0 0 0 0.219608 0 0 0 0 0.984314 0 0 0 0 0.992157 0 0 0 0.6 0"/>
<feBlend mode="normal" in2="BackgroundImageFix" result="effect1_dropShadow"/>
<feBlend mode="normal" in="SourceGraphic" in2="effect1_dropShadow" result="shape"/>
<feColorMatrix in="SourceAlpha" type="matrix" values="0 0 0 0 0 0 0 0 0 0 0 0 0 0 0 0 0 0 127 0" result="hardAlpha"/>
<feOffset/>
<feGaussianBlur stdDeviation="2"/>
<feComposite in2="hardAlpha" operator="arithmetic" k2="-1" k3="1"/>
<feColorMatrix type="matrix" values="0 0 0 0 0 0 0 0 0 0.256995 0 0 0 0 0.258333 0 0 0 1 0"/>
<feBlend mode="normal" in2="shape" result="effect2_innerShadow"/>
</filter>
<filter id="filter2_di" x="1142" y="40" width="302" height="12" filterUnits="userSpaceOnUse" color-interpolation-filters="sRGB">
<feFlood flood-opacity="0" result="BackgroundImageFix"/>
<feColorMatrix in="SourceAlpha" type="matrix" values="0 0 0 0 0 0 0 0 0 0 0 0 0 0 0 0 0 0 127 0" result="hardAlpha"/>
<feOffset/>
<feGaussianBlur stdDeviation="2"/>
<feColorMatrix type="matrix" values="0 0 0 0 0.219608 0 0 0 0 0.984314 0 0 0 0 0.992157 0 0 0 0.6 0"/>
<feBlend mode="normal" in2="BackgroundImageFix" result="effect1_dropShadow"/>
<feBlend mode="normal" in="SourceGraphic" in2="effect1_dropShadow" result="shape"/>
<feColorMatrix in="SourceAlpha" type="matrix" values="0 0 0 0 0 0 0 0 0 0 0 0 0 0 0 0 0 0 127 0" result="hardAlpha"/>
<feOffset/>
<feGaussianBlur stdDeviation="2"/>
<feComposite in2="hardAlpha" operator="arithmetic" k2="-1" k3="1"/>
<feColorMatrix type="matrix" values="0 0 0 0 0 0 0 0 0 0.256995 0 0 0 0 0.258333 0 0 0 1 0"/>
<feBlend mode="normal" in2="shape" result="effect2_innerShadow"/>
</filter>
<filter id="filter3_di" x="710" y="40" width="440" height="12" filterUnits="userSpaceOnUse" color-interpolation-filters="sRGB">
<feFlood flood-opacity="0" result="BackgroundImageFix"/>
<feColorMatrix in="SourceAlpha" type="matrix" values="0 0 0 0 0 0 0 0 0 0 0 0 0 0 0 0 0 0 127 0" result="hardAlpha"/>
<feOffset/>
<feGaussianBlur stdDeviation="2"/>
<feColorMatrix type="matrix" values="0 0 0 0 0.219608 0 0 0 0 0.984314 0 0 0 0 0.992157 0 0 0 0.6 0"/>
<feBlend mode="normal" in2="BackgroundImageFix" result="effect1_dropShadow"/>
<feBlend mode="normal" in="SourceGraphic" in2="effect1_dropShadow" result="shape"/>
<feColorMatrix in="SourceAlpha" type="matrix" values="0 0 0 0 0 0 0 0 0 0 0 0 0 0 0 0 0 0 127 0" result="hardAlpha"/>
<feOffset/>
<feGaussianBlur stdDeviation="2"/>
<feComposite in2="hardAlpha" operator="arithmetic" k2="-1" k3="1"/>
<feColorMatrix type="matrix" values="0 0 0 0 0 0 0 0 0 0.256995 0 0 0 0 0.258333 0 0 0 1 0"/>
<feBlend mode="normal" in2="shape" result="effect2_innerShadow"/>
</filter>
<filter id="filter4_d" x="261.114" y="28.9873" width="41.7727" height="41.7727" filterUnits="userSpaceOnUse" color-interpolation-filters="sRGB">
<feFlood flood-opacity="0" result="BackgroundImageFix"/>
<feColorMatrix in="SourceAlpha" type="matrix" values="0 0 0 0 0 0 0 0 0 0 0 0 0 0 0 0 0 0 127 0" result="hardAlpha"/>
<feOffset dy="4"/>
<feGaussianBlur stdDeviation="2"/>
<feColorMatrix type="matrix" values="0 0 0 0 0 0 0 0 0 0 0 0 0 0 0 0 0 0 0.25 0"/>
<feBlend mode="normal" in2="BackgroundImageFix" result="effect1_dropShadow"/>
<feBlend mode="normal" in="SourceGraphic" in2="effect1_dropShadow" result="shape"/>
</filter>
<filter id="filter5_di" x="261.114" y="24.9873" width="41.7727" height="41.7727" filterUnits="userSpaceOnUse" color-interpolation-filters="sRGB">
<feFlood flood-opacity="0" result="BackgroundImageFix"/>
<feColorMatrix in="SourceAlpha" type="matrix" values="0 0 0 0 0 0 0 0 0 0 0 0 0 0 0 0 0 0 127 0" result="hardAlpha"/>
<feOffset/>
<feGaussianBlur stdDeviation="2"/>
<feColorMatrix type="matrix" values="0 0 0 0 1 0 0 0 0 1 0 0 0 0 1 0 0 0 0.6 0"/>
<feBlend mode="normal" in2="BackgroundImageFix" result="effect1_dropShadow"/>
<feBlend mode="normal" in="SourceGraphic" in2="effect1_dropShadow" result="shape"/>
<feColorMatrix in="SourceAlpha" type="matrix" values="0 0 0 0 0 0 0 0 0 0 0 0 0 0 0 0 0 0 127 0" result="hardAlpha"/>
<feOffset/>
<feGaussianBlur stdDeviation="2"/>
<feComposite in2="hardAlpha" operator="arithmetic" k2="-1" k3="1"/>
<feColorMatrix type="matrix" values="0 0 0 0 0.332222 0 0 0 0 0.383069 0 0 0 0 0.383333 0 0 0 1 0"/>
<feBlend mode="normal" in2="shape" result="effect2_innerShadow"/>
</filter>
<filter id="filter6_d" x="693.114" y="29.9873" width="41.7727" height="41.7727" filterUnits="userSpaceOnUse" color-interpolation-filters="sRGB">
<feFlood flood-opacity="0" result="BackgroundImageFix"/>
<feColorMatrix in="SourceAlpha" type="matrix" values="0 0 0 0 0 0 0 0 0 0 0 0 0 0 0 0 0 0 127 0" result="hardAlpha"/>
<feOffset dy="4"/>
<feGaussianBlur stdDeviation="2"/>
<feColorMatrix type="matrix" values="0 0 0 0 0 0 0 0 0 0 0 0 0 0 0 0 0 0 0.25 0"/>
<feBlend mode="normal" in2="BackgroundImageFix" result="effect1_dropShadow"/>
<feBlend mode="normal" in="SourceGraphic" in2="effect1_dropShadow" result="shape"/>
</filter>
<filter id="filter7_di" x="693.114" y="25.9873" width="41.7727" height="41.7727" filterUnits="userSpaceOnUse" color-interpolation-filters="sRGB">
<feFlood flood-opacity="0" result="BackgroundImageFix"/>
<feColorMatrix in="SourceAlpha" type="matrix" values="0 0 0 0 0 0 0 0 0 0 0 0 0 0 0 0 0 0 127 0" result="hardAlpha"/>
<feOffset/>
<feGaussianBlur stdDeviation="2"/>
<feColorMatrix type="matrix" values="0 0 0 0 1 0 0 0 0 1 0 0 0 0 1 0 0 0 0.6 0"/>
<feBlend mode="normal" in2="BackgroundImageFix" result="effect1_dropShadow"/>
<feBlend mode="normal" in="SourceGraphic" in2="effect1_dropShadow" result="shape"/>
<feColorMatrix in="SourceAlpha" type="matrix" values="0 0 0 0 0 0 0 0 0 0 0 0 0 0 0 0 0 0 127 0" result="hardAlpha"/>
<feOffset/>
<feGaussianBlur stdDeviation="2"/>
<feComposite in2="hardAlpha" operator="arithmetic" k2="-1" k3="1"/>
<feColorMatrix type="matrix" values="0 0 0 0 0.332222 0 0 0 0 0.383069 0 0 0 0 0.383333 0 0 0 1 0"/>
<feBlend mode="normal" in2="shape" result="effect2_innerShadow"/>
</filter>
<filter id="filter8_d" x="1125.11" y="29.9873" width="41.7727" height="41.7727" filterUnits="userSpaceOnUse" color-interpolation-filters="sRGB">
<feFlood flood-opacity="0" result="BackgroundImageFix"/>
<feColorMatrix in="SourceAlpha" type="matrix" values="0 0 0 0 0 0 0 0 0 0 0 0 0 0 0 0 0 0 127 0" result="hardAlpha"/>
<feOffset dy="4"/>
<feGaussianBlur stdDeviation="2"/>
<feColorMatrix type="matrix" values="0 0 0 0 0 0 0 0 0 0 0 0 0 0 0 0 0 0 0.25 0"/>
<feBlend mode="normal" in2="BackgroundImageFix" result="effect1_dropShadow"/>
<feBlend mode="normal" in="SourceGraphic" in2="effect1_dropShadow" result="shape"/>
</filter>
<filter id="filter9_di" x="1125.11" y="25.9873" width="41.7727" height="41.7727" filterUnits="userSpaceOnUse" color-interpolation-filters="sRGB">
<feFlood flood-opacity="0" result="BackgroundImageFix"/>
<feColorMatrix in="SourceAlpha" type="matrix" values="0 0 0 0 0 0 0 0 0 0 0 0 0 0 0 0 0 0 127 0" result="hardAlpha"/>
<feOffset/>
<feGaussianBlur stdDeviation="2"/>
<feColorMatrix type="matrix" values="0 0 0 0 1 0 0 0 0 1 0 0 0 0 1 0 0 0 0.6 0"/>
<feBlend mode="normal" in2="BackgroundImageFix" result="effect1_dropShadow"/>
<feBlend mode="normal" in="SourceGraphic" in2="effect1_dropShadow" result="shape"/>
<feColorMatrix in="SourceAlpha" type="matrix" values="0 0 0 0 0 0 0 0 0 0 0 0 0 0 0 0 0 0 127 0" result="hardAlpha"/>
<feOffset/>
<feGaussianBlur stdDeviation="2"/>
<feComposite in2="hardAlpha" operator="arithmetic" k2="-1" k3="1"/>
<feColorMatrix type="matrix" values="0 0 0 0 0.332222 0 0 0 0 0.383069 0 0 0 0 0.383333 0 0 0 1 0"/>
<feBlend mode="normal" in2="shape" result="effect2_innerShadow"/>
</filter>
<filter id="filter10_d" x="221.214" y="66.292" width="121.534" height="32.906" filterUnits="userSpaceOnUse" color-interpolation-filters="sRGB">
<feFlood flood-opacity="0" result="BackgroundImageFix"/>
<feColorMatrix in="SourceAlpha" type="matrix" values="0 0 0 0 0 0 0 0 0 0 0 0 0 0 0 0 0 0 127 0" result="hardAlpha"/>
<feOffset/>
<feGaussianBlur stdDeviation="5"/>
<feColorMatrix type="matrix" values="0 0 0 0 0.0431373 0 0 0 0 0 0 0 0 0 0.0941176 0 0 0 1 0"/>
<feBlend mode="normal" in2="BackgroundImageFix" result="effect1_dropShadow"/>
<feBlend mode="normal" in="SourceGraphic" in2="effect1_dropShadow" result="shape"/>
</filter>
<filter id="filter11_d" x="653.214" y="66.292" width="121.948" height="32.906" filterUnits="userSpaceOnUse" color-interpolation-filters="sRGB">
<feFlood flood-opacity="0" result="BackgroundImageFix"/>
<feColorMatrix in="SourceAlpha" type="matrix" values="0 0 0 0 0 0 0 0 0 0 0 0 0 0 0 0 0 0 127 0" result="hardAlpha"/>
<feOffset/>
<feGaussianBlur stdDeviation="5"/>
<feColorMatrix type="matrix" values="0 0 0 0 0.0431373 0 0 0 0 0 0 0 0 0 0.0941176 0 0 0 1 0"/>
<feBlend mode="normal" in2="BackgroundImageFix" result="effect1_dropShadow"/>
<feBlend mode="normal" in="SourceGraphic" in2="effect1_dropShadow" result="shape"/>
</filter>
<filter id="filter12_d" x="1096.21" y="66.292" width="122.542" height="32.906" filterUnits="userSpaceOnUse" color-interpolation-filters="sRGB">
<feFlood flood-opacity="0" result="BackgroundImageFix"/>
<feColorMatrix in="SourceAlpha" type="matrix" values="0 0 0 0 0 0 0 0 0 0 0 0 0 0 0 0 0 0 127 0" result="hardAlpha"/>
<feOffset/>
<feGaussianBlur stdDeviation="5"/>
<feColorMatrix type="matrix" values="0 0 0 0 0.0431373 0 0 0 0 0 0 0 0 0 0.0941176 0 0 0 1 0"/>
<feBlend mode="normal" in2="BackgroundImageFix" result="effect1_dropShadow"/>
<feBlend mode="normal" in="SourceGraphic" in2="effect1_dropShadow" result="shape"/>
</filter>
<filter id="filter13_d" x="303.585" y="0.978027" width="101.121" height="37.397" filterUnits="userSpaceOnUse" color-interpolation-filters="sRGB">
<feFlood flood-opacity="0" result="BackgroundImageFix"/>
<feColorMatrix in="SourceAlpha" type="matrix" values="0 0 0 0 0 0 0 0 0 0 0 0 0 0 0 0 0 0 127 0" result="hardAlpha"/>
<feOffset/>
<feGaussianBlur stdDeviation="5"/>
<feColorMatrix type="matrix" values="0 0 0 0 0.0431373 0 0 0 0 0 0 0 0 0 0.0941176 0 0 0 1 0"/>
<feBlend mode="normal" in2="BackgroundImageFix" result="effect1_dropShadow"/>
<feBlend mode="normal" in="SourceGraphic" in2="effect1_dropShadow" result="shape"/>
</filter>
<filter id="filter14_d" x="468.585" y="0.978027" width="101.535" height="37.397" filterUnits="userSpaceOnUse" color-interpolation-filters="sRGB">
<feFlood flood-opacity="0" result="BackgroundImageFix"/>
<feColorMatrix in="SourceAlpha" type="matrix" values="0 0 0 0 0 0 0 0 0 0 0 0 0 0 0 0 0 0 127 0" result="hardAlpha"/>
<feOffset/>
<feGaussianBlur stdDeviation="5"/>
<feColorMatrix type="matrix" values="0 0 0 0 0.0431373 0 0 0 0 0 0 0 0 0 0.0941176 0 0 0 1 0"/>
<feBlend mode="normal" in2="BackgroundImageFix" result="effect1_dropShadow"/>
<feBlend mode="normal" in="SourceGraphic" in2="effect1_dropShadow" result="shape"/>
</filter>
<filter id="filter15_d" x="662.585" y="0.978027" width="101.535" height="37.397" filterUnits="userSpaceOnUse" color-interpolation-filters="sRGB">
<feFlood flood-opacity="0" result="BackgroundImageFix"/>
<feColorMatrix in="SourceAlpha" type="matrix" values="0 0 0 0 0 0 0 0 0 0 0 0 0 0 0 0 0 0 127 0" result="hardAlpha"/>
<feOffset/>
<feGaussianBlur stdDeviation="5"/>
<feColorMatrix type="matrix" values="0 0 0 0 0.0431373 0 0 0 0 0 0 0 0 0 0.0941176 0 0 0 1 0"/>
<feBlend mode="normal" in2="BackgroundImageFix" result="effect1_dropShadow"/>
<feBlend mode="normal" in="SourceGraphic" in2="effect1_dropShadow" result="shape"/>
</filter>
<filter id="filter16_d" x="1094.58" y="0.978027" width="101.535" height="37.397" filterUnits="userSpaceOnUse" color-interpolation-filters="sRGB">
<feFlood flood-opacity="0" result="BackgroundImageFix"/>
<feColorMatrix in="SourceAlpha" type="matrix" values="0 0 0 0 0 0 0 0 0 0 0 0 0 0 0 0 0 0 127 0" result="hardAlpha"/>
<feOffset/>
<feGaussianBlur stdDeviation="5"/>
<feColorMatrix type="matrix" values="0 0 0 0 0.0431373 0 0 0 0 0 0 0 0 0 0.0941176 0 0 0 1 0"/>
<feBlend mode="normal" in2="BackgroundImageFix" result="effect1_dropShadow"/>
<feBlend mode="normal" in="SourceGraphic" in2="effect1_dropShadow" result="shape"/>
</filter>
<radialGradient id="paint0_radial" cx="0" cy="0" r="1" gradientUnits="userSpaceOnUse" gradientTransform="translate(282.773 35.4658) rotate(117.494) scale(12.3275)">
<stop stop-color="#FFC700"/>
<stop offset="0.5" stop-color="#9F790A"/>
<stop offset="1" stop-color="#0B0018"/>
</radialGradient>
<radialGradient id="paint1_radial" cx="0" cy="0" r="1" gradientUnits="userSpaceOnUse" gradientTransform="translate(714.773 36.4658) rotate(117.494) scale(12.3275)">
<stop stop-color="#FFC700"/>
<stop offset="0.5" stop-color="#9F790A"/>
<stop offset="1" stop-color="#0B0018"/>
</radialGradient>
<radialGradient id="paint2_radial" cx="0" cy="0" r="1" gradientUnits="userSpaceOnUse" gradientTransform="translate(1146.77 36.4658) rotate(117.494) scale(12.3275)">
<stop stop-color="#FFC700"/>
<stop offset="0.5" stop-color="#9F790A"/>
<stop offset="1" stop-color="#0B0018"/>
</radialGradient>
</defs>
</svg>
