<svg width="608" height="286" viewBox="0 0 608 286" fill="none" xmlns="http://www.w3.org/2000/svg">
<g filter="url(#filter0_di)">
<line x1="459.483" y1="227.878" x2="180.483" y2="112.878" stroke="#38FBFD" stroke-width="2" stroke-dasharray="4 2"/>
</g>
<g filter="url(#filter1_di)">
<line x1="459.778" y1="227.949" x2="22.7779" y2="189.949" stroke="#38FBFD" stroke-width="2" stroke-dasharray="4 2"/>
</g>
<g filter="url(#filter2_di)">
<line x1="458.949" y1="227.355" x2="368.949" y2="22.3551" stroke="#38FBFD" stroke-width="2" stroke-dasharray="4 2"/>
</g>
<g filter="url(#filter3_di)">
<line x1="459.024" y1="226.411" x2="575.024" y2="46.4114" stroke="#38FBFD" stroke-width="2" stroke-dasharray="4 2"/>
</g>
<g filter="url(#filter4_di)">
<circle cx="460.865" cy="228.953" r="44" stroke="#38FBFD" stroke-width="8"/>
</g>
<g filter="url(#filter5_di)">
<circle cx="369.865" cy="22.9531" r="14" stroke="#FFF500" stroke-width="8"/>
</g>
<path d="M376.975 29.9759C373.196 34.0042 366.868 34.2069 362.84 30.4287C358.811 26.6505 358.609 20.3221 362.387 16.2938C366.165 12.2656 372.494 12.0628 376.522 15.841C380.55 19.6193 380.753 25.9477 376.975 29.9759Z" fill="url(#paint0_radial)"/>
<path d="M376.975 29.9759C373.196 34.0042 366.868 34.2069 362.84 30.4287C358.811 26.6505 358.609 20.3221 362.387 16.2938C366.165 12.2656 372.494 12.0628 376.522 15.841C380.55 19.6193 380.753 25.9477 376.975 29.9759Z" fill="#FFF500" style="mix-blend-mode:hue"/>
<path d="M376.975 29.9759C373.196 34.0042 366.868 34.2069 362.84 30.4287C358.811 26.6505 358.609 20.3221 362.387 16.2938C366.165 12.2656 372.494 12.0628 376.522 15.841C380.55 19.6193 380.753 25.9477 376.975 29.9759Z" fill="white" fill-opacity="0.8" style="mix-blend-mode:overlay"/>
<path d="M19.2843 198.372C14.1567 196.32 11.6633 190.5 13.715 185.373C15.7667 180.245 21.5867 177.752 26.7143 179.804C31.8419 181.855 34.3354 187.675 32.2837 192.803C30.2319 197.93 24.4119 200.424 19.2843 198.372Z" fill="url(#paint1_radial)"/>
<path d="M19.2843 198.372C14.1567 196.32 11.6633 190.5 13.715 185.373C15.7667 180.245 21.5867 177.752 26.7143 179.804C31.8419 181.855 34.3354 187.675 32.2837 192.803C30.2319 197.93 24.4119 200.424 19.2843 198.372Z" fill="#FA00FF" style="mix-blend-mode:hue"/>
<path d="M19.2843 198.372C14.1567 196.32 11.6633 190.5 13.715 185.373C15.7667 180.245 21.5867 177.752 26.7143 179.804C31.8419 181.855 34.3354 187.675 32.2837 192.803C30.2319 197.93 24.4119 200.424 19.2843 198.372Z" fill="white" fill-opacity="0.8" style="mix-blend-mode:overlay"/>
<g filter="url(#filter6_di)">
<circle cx="575.865" cy="40.9531" r="24" stroke="#4200FF" stroke-width="8"/>
</g>
<g filter="url(#filter7_di)">
<circle cx="22.8645" cy="188.953" r="14" stroke="#FA00FF" stroke-width="8"/>
</g>
<path d="M489.326 257.423C473.702 273.042 448.376 273.038 432.757 257.414C417.138 241.791 417.142 216.465 432.766 200.846C448.389 185.227 473.716 185.231 489.334 200.854C504.953 216.478 504.949 241.804 489.326 257.423Z" fill="url(#paint2_radial)"/>
<path d="M489.326 257.423C473.702 273.042 448.376 273.038 432.757 257.414C417.138 241.791 417.142 216.465 432.766 200.846C448.389 185.227 473.716 185.231 489.334 200.854C504.953 216.478 504.949 241.804 489.326 257.423Z" fill="#38FBFD" style="mix-blend-mode:hue"/>
<path d="M489.326 257.423C473.702 273.042 448.376 273.038 432.757 257.414C417.138 241.791 417.142 216.465 432.766 200.846C448.389 185.227 473.716 185.231 489.334 200.854C504.953 216.478 504.949 241.804 489.326 257.423Z" fill="white" fill-opacity="0.8" style="mix-blend-mode:overlay"/>
<path d="M590.289 55.3817C582.477 63.191 569.814 63.1891 562.005 55.3774C554.195 47.5657 554.197 34.9024 562.009 27.0931C569.82 19.2838 582.484 19.2857 590.293 27.0974C598.102 34.9091 598.1 47.5724 590.289 55.3817Z" fill="url(#paint3_radial)"/>
<path d="M590.289 55.3817C582.477 63.191 569.814 63.1891 562.005 55.3774C554.195 47.5657 554.197 34.9024 562.009 27.0931C569.82 19.2838 582.484 19.2857 590.293 27.0974C598.102 34.9091 598.1 47.5724 590.289 55.3817Z" fill="#4200FF" style="mix-blend-mode:hue"/>
<path d="M590.289 55.3817C582.477 63.191 569.814 63.1891 562.005 55.3774C554.195 47.5657 554.197 34.9024 562.009 27.0931C569.82 19.2838 582.484 19.2857 590.293 27.0974C598.102 34.9091 598.1 47.5724 590.289 55.3817Z" fill="white" fill-opacity="0.8" style="mix-blend-mode:overlay"/>
<g filter="url(#filter8_d)">
<g filter="url(#filter9_di)">
<circle cx="179.864" cy="111.953" r="34" stroke="white" stroke-width="8"/>
</g>
<path d="M183.896 142.108C167.478 144.334 152.363 132.83 150.137 116.411C147.91 99.9933 159.414 84.8786 175.833 82.6519C192.251 80.4252 207.366 91.9297 209.592 108.348C211.819 124.766 200.315 139.881 183.896 142.108Z" fill="url(#paint4_radial)"/>
<path d="M183.896 142.108C167.478 144.334 152.363 132.83 150.137 116.411C147.91 99.9933 159.414 84.8786 175.833 82.6519C192.251 80.4252 207.366 91.9297 209.592 108.348C211.819 124.766 200.315 139.881 183.896 142.108Z" fill="white" style="mix-blend-mode:hue"/>
<path d="M183.896 142.108C167.478 144.334 152.363 132.83 150.137 116.411C147.91 99.9933 159.414 84.8786 175.833 82.6519C192.251 80.4252 207.366 91.9297 209.592 108.348C211.819 124.766 200.315 139.881 183.896 142.108Z" fill="white" fill-opacity="0.8" style="mix-blend-mode:overlay"/>
</g>
<defs>
<filter id="filter0_di" x="175.721" y="107.029" width="288.524" height="126.698" filterUnits="userSpaceOnUse" color-interpolation-filters="sRGB">
<feFlood flood-opacity="0" result="BackgroundImageFix"/>
<feColorMatrix in="SourceAlpha" type="matrix" values="0 0 0 0 0 0 0 0 0 0 0 0 0 0 0 0 0 0 127 0" result="hardAlpha"/>
<feOffset/>
<feGaussianBlur stdDeviation="2"/>
<feColorMatrix type="matrix" values="0 0 0 0 0.219608 0 0 0 0 0.984314 0 0 0 0 0.992157 0 0 0 0.6 0"/>
<feBlend mode="normal" in2="BackgroundImageFix" result="effect1_dropShadow"/>
<feBlend mode="normal" in="SourceGraphic" in2="effect1_dropShadow" result="shape"/>
<feColorMatrix in="SourceAlpha" type="matrix" values="0 0 0 0 0 0 0 0 0 0 0 0 0 0 0 0 0 0 127 0" result="hardAlpha"/>
<feOffset/>
<feGaussianBlur stdDeviation="2"/>
<feComposite in2="hardAlpha" operator="arithmetic" k2="-1" k3="1"/>
<feColorMatrix type="matrix" values="0 0 0 0 0 0 0 0 0 0.256995 0 0 0 0 0.258333 0 0 0 1 0"/>
<feBlend mode="normal" in2="shape" result="effect2_innerShadow"/>
</filter>
<filter id="filter1_di" x="18.6046" y="183.957" width="445.347" height="49.985" filterUnits="userSpaceOnUse" color-interpolation-filters="sRGB">
<feFlood flood-opacity="0" result="BackgroundImageFix"/>
<feColorMatrix in="SourceAlpha" type="matrix" values="0 0 0 0 0 0 0 0 0 0 0 0 0 0 0 0 0 0 127 0" result="hardAlpha"/>
<feOffset/>
<feGaussianBlur stdDeviation="2"/>
<feColorMatrix type="matrix" values="0 0 0 0 0.219608 0 0 0 0 0.984314 0 0 0 0 0.992157 0 0 0 0.6 0"/>
<feBlend mode="normal" in2="BackgroundImageFix" result="effect1_dropShadow"/>
<feBlend mode="normal" in="SourceGraphic" in2="effect1_dropShadow" result="shape"/>
<feColorMatrix in="SourceAlpha" type="matrix" values="0 0 0 0 0 0 0 0 0 0 0 0 0 0 0 0 0 0 127 0" result="hardAlpha"/>
<feOffset/>
<feGaussianBlur stdDeviation="2"/>
<feComposite in2="hardAlpha" operator="arithmetic" k2="-1" k3="1"/>
<feColorMatrix type="matrix" values="0 0 0 0 0 0 0 0 0 0.256995 0 0 0 0 0.258333 0 0 0 1 0"/>
<feBlend mode="normal" in2="shape" result="effect2_innerShadow"/>
</filter>
<filter id="filter2_di" x="363.118" y="17.5513" width="101.663" height="214.608" filterUnits="userSpaceOnUse" color-interpolation-filters="sRGB">
<feFlood flood-opacity="0" result="BackgroundImageFix"/>
<feColorMatrix in="SourceAlpha" type="matrix" values="0 0 0 0 0 0 0 0 0 0 0 0 0 0 0 0 0 0 127 0" result="hardAlpha"/>
<feOffset/>
<feGaussianBlur stdDeviation="2"/>
<feColorMatrix type="matrix" values="0 0 0 0 0.219608 0 0 0 0 0.984314 0 0 0 0 0.992157 0 0 0 0.6 0"/>
<feBlend mode="normal" in2="BackgroundImageFix" result="effect1_dropShadow"/>
<feBlend mode="normal" in="SourceGraphic" in2="effect1_dropShadow" result="shape"/>
<feColorMatrix in="SourceAlpha" type="matrix" values="0 0 0 0 0 0 0 0 0 0 0 0 0 0 0 0 0 0 127 0" result="hardAlpha"/>
<feOffset/>
<feGaussianBlur stdDeviation="2"/>
<feComposite in2="hardAlpha" operator="arithmetic" k2="-1" k3="1"/>
<feColorMatrix type="matrix" values="0 0 0 0 0 0 0 0 0 0.256995 0 0 0 0 0.258333 0 0 0 1 0"/>
<feBlend mode="normal" in2="shape" result="effect2_innerShadow"/>
</filter>
<filter id="filter3_di" x="453.343" y="41.3281" width="127.362" height="190.167" filterUnits="userSpaceOnUse" color-interpolation-filters="sRGB">
<feFlood flood-opacity="0" result="BackgroundImageFix"/>
<feColorMatrix in="SourceAlpha" type="matrix" values="0 0 0 0 0 0 0 0 0 0 0 0 0 0 0 0 0 0 127 0" result="hardAlpha"/>
<feOffset/>
<feGaussianBlur stdDeviation="2"/>
<feColorMatrix type="matrix" values="0 0 0 0 0.219608 0 0 0 0 0.984314 0 0 0 0 0.992157 0 0 0 0.6 0"/>
<feBlend mode="normal" in2="BackgroundImageFix" result="effect1_dropShadow"/>
<feBlend mode="normal" in="SourceGraphic" in2="effect1_dropShadow" result="shape"/>
<feColorMatrix in="SourceAlpha" type="matrix" values="0 0 0 0 0 0 0 0 0 0 0 0 0 0 0 0 0 0 127 0" result="hardAlpha"/>
<feOffset/>
<feGaussianBlur stdDeviation="2"/>
<feComposite in2="hardAlpha" operator="arithmetic" k2="-1" k3="1"/>
<feColorMatrix type="matrix" values="0 0 0 0 0 0 0 0 0 0.256995 0 0 0 0 0.258333 0 0 0 1 0"/>
<feBlend mode="normal" in2="shape" result="effect2_innerShadow"/>
</filter>
<filter id="filter4_di" x="408.865" y="176.953" width="104" height="104" filterUnits="userSpaceOnUse" color-interpolation-filters="sRGB">
<feFlood flood-opacity="0" result="BackgroundImageFix"/>
<feColorMatrix in="SourceAlpha" type="matrix" values="0 0 0 0 0 0 0 0 0 0 0 0 0 0 0 0 0 0 127 0" result="hardAlpha"/>
<feOffset/>
<feGaussianBlur stdDeviation="2"/>
<feColorMatrix type="matrix" values="0 0 0 0 0.219608 0 0 0 0 0.984314 0 0 0 0 0.992157 0 0 0 0.6 0"/>
<feBlend mode="normal" in2="BackgroundImageFix" result="effect1_dropShadow"/>
<feBlend mode="normal" in="SourceGraphic" in2="effect1_dropShadow" result="shape"/>
<feColorMatrix in="SourceAlpha" type="matrix" values="0 0 0 0 0 0 0 0 0 0 0 0 0 0 0 0 0 0 127 0" result="hardAlpha"/>
<feOffset/>
<feGaussianBlur stdDeviation="2"/>
<feComposite in2="hardAlpha" operator="arithmetic" k2="-1" k3="1"/>
<feColorMatrix type="matrix" values="0 0 0 0 0 0 0 0 0 0.256995 0 0 0 0 0.258333 0 0 0 1 0"/>
<feBlend mode="normal" in2="shape" result="effect2_innerShadow"/>
</filter>
<filter id="filter5_di" x="347.865" y="0.953125" width="44" height="44" filterUnits="userSpaceOnUse" color-interpolation-filters="sRGB">
<feFlood flood-opacity="0" result="BackgroundImageFix"/>
<feColorMatrix in="SourceAlpha" type="matrix" values="0 0 0 0 0 0 0 0 0 0 0 0 0 0 0 0 0 0 127 0" result="hardAlpha"/>
<feOffset/>
<feGaussianBlur stdDeviation="2"/>
<feColorMatrix type="matrix" values="0 0 0 0 1 0 0 0 0 0.960784 0 0 0 0 0 0 0 0 0.6 0"/>
<feBlend mode="normal" in2="BackgroundImageFix" result="effect1_dropShadow"/>
<feBlend mode="normal" in="SourceGraphic" in2="effect1_dropShadow" result="shape"/>
<feColorMatrix in="SourceAlpha" type="matrix" values="0 0 0 0 0 0 0 0 0 0 0 0 0 0 0 0 0 0 127 0" result="hardAlpha"/>
<feOffset/>
<feGaussianBlur stdDeviation="2"/>
<feComposite in2="hardAlpha" operator="arithmetic" k2="-1" k3="1"/>
<feColorMatrix type="matrix" values="0 0 0 0 0.375 0 0 0 0 0.360294 0 0 0 0 0 0 0 0 1 0"/>
<feBlend mode="normal" in2="shape" result="effect2_innerShadow"/>
</filter>
<filter id="filter6_di" x="543.865" y="8.95312" width="64" height="64" filterUnits="userSpaceOnUse" color-interpolation-filters="sRGB">
<feFlood flood-opacity="0" result="BackgroundImageFix"/>
<feColorMatrix in="SourceAlpha" type="matrix" values="0 0 0 0 0 0 0 0 0 0 0 0 0 0 0 0 0 0 127 0" result="hardAlpha"/>
<feOffset/>
<feGaussianBlur stdDeviation="2"/>
<feColorMatrix type="matrix" values="0 0 0 0 0.258824 0 0 0 0 0 0 0 0 0 1 0 0 0 0.6 0"/>
<feBlend mode="normal" in2="BackgroundImageFix" result="effect1_dropShadow"/>
<feBlend mode="normal" in="SourceGraphic" in2="effect1_dropShadow" result="shape"/>
<feColorMatrix in="SourceAlpha" type="matrix" values="0 0 0 0 0 0 0 0 0 0 0 0 0 0 0 0 0 0 127 0" result="hardAlpha"/>
<feOffset/>
<feGaussianBlur stdDeviation="2"/>
<feComposite in2="hardAlpha" operator="arithmetic" k2="-1" k3="1"/>
<feColorMatrix type="matrix" values="0 0 0 0 0.0916666 0 0 0 0 0 0 0 0 0 0.354167 0 0 0 1 0"/>
<feBlend mode="normal" in2="shape" result="effect2_innerShadow"/>
</filter>
<filter id="filter7_di" x="0.8645" y="166.953" width="44" height="44" filterUnits="userSpaceOnUse" color-interpolation-filters="sRGB">
<feFlood flood-opacity="0" result="BackgroundImageFix"/>
<feColorMatrix in="SourceAlpha" type="matrix" values="0 0 0 0 0 0 0 0 0 0 0 0 0 0 0 0 0 0 127 0" result="hardAlpha"/>
<feOffset/>
<feGaussianBlur stdDeviation="2"/>
<feColorMatrix type="matrix" values="0 0 0 0 0.980392 0 0 0 0 0 0 0 0 0 1 0 0 0 0.6 0"/>
<feBlend mode="normal" in2="BackgroundImageFix" result="effect1_dropShadow"/>
<feBlend mode="normal" in="SourceGraphic" in2="effect1_dropShadow" result="shape"/>
<feColorMatrix in="SourceAlpha" type="matrix" values="0 0 0 0 0 0 0 0 0 0 0 0 0 0 0 0 0 0 127 0" result="hardAlpha"/>
<feOffset/>
<feGaussianBlur stdDeviation="2"/>
<feComposite in2="hardAlpha" operator="arithmetic" k2="-1" k3="1"/>
<feColorMatrix type="matrix" values="0 0 0 0 0.290033 0 0 0 0 0 0 0 0 0 0.295833 0 0 0 1 0"/>
<feBlend mode="normal" in2="shape" result="effect2_innerShadow"/>
</filter>
<filter id="filter8_d" x="137.864" y="73.9531" width="84" height="84" filterUnits="userSpaceOnUse" color-interpolation-filters="sRGB">
<feFlood flood-opacity="0" result="BackgroundImageFix"/>
<feColorMatrix in="SourceAlpha" type="matrix" values="0 0 0 0 0 0 0 0 0 0 0 0 0 0 0 0 0 0 127 0" result="hardAlpha"/>
<feOffset dy="4"/>
<feGaussianBlur stdDeviation="2"/>
<feColorMatrix type="matrix" values="0 0 0 0 0 0 0 0 0 0 0 0 0 0 0 0 0 0 0.25 0"/>
<feBlend mode="normal" in2="BackgroundImageFix" result="effect1_dropShadow"/>
<feBlend mode="normal" in="SourceGraphic" in2="effect1_dropShadow" result="shape"/>
</filter>
<filter id="filter9_di" x="137.864" y="69.9531" width="84" height="84" filterUnits="userSpaceOnUse" color-interpolation-filters="sRGB">
<feFlood flood-opacity="0" result="BackgroundImageFix"/>
<feColorMatrix in="SourceAlpha" type="matrix" values="0 0 0 0 0 0 0 0 0 0 0 0 0 0 0 0 0 0 127 0" result="hardAlpha"/>
<feOffset/>
<feGaussianBlur stdDeviation="2"/>
<feColorMatrix type="matrix" values="0 0 0 0 1 0 0 0 0 1 0 0 0 0 1 0 0 0 0.6 0"/>
<feBlend mode="normal" in2="BackgroundImageFix" result="effect1_dropShadow"/>
<feBlend mode="normal" in="SourceGraphic" in2="effect1_dropShadow" result="shape"/>
<feColorMatrix in="SourceAlpha" type="matrix" values="0 0 0 0 0 0 0 0 0 0 0 0 0 0 0 0 0 0 127 0" result="hardAlpha"/>
<feOffset/>
<feGaussianBlur stdDeviation="2"/>
<feComposite in2="hardAlpha" operator="arithmetic" k2="-1" k3="1"/>
<feColorMatrix type="matrix" values="0 0 0 0 0.332222 0 0 0 0 0.383069 0 0 0 0 0.383333 0 0 0 1 0"/>
<feBlend mode="normal" in2="shape" result="effect2_innerShadow"/>
</filter>
<radialGradient id="paint0_radial" cx="0" cy="0" r="1" gradientUnits="userSpaceOnUse" gradientTransform="translate(362.878 13.3879) rotate(78.3829) scale(13.8724)">
<stop stop-color="#FFC700"/>
<stop offset="0.5" stop-color="#9F790A"/>
<stop offset="1" stop-color="#0B0018"/>
</radialGradient>
<radialGradient id="paint1_radial" cx="0" cy="0" r="1" gradientUnits="userSpaceOnUse" gradientTransform="translate(29.5995 179.202) rotate(147.026) scale(13.8724)">
<stop stop-color="#FFC700"/>
<stop offset="0.5" stop-color="#9F790A"/>
<stop offset="1" stop-color="#0B0018"/>
</radialGradient>
<radialGradient id="paint2_radial" cx="0" cy="0" r="1" gradientUnits="userSpaceOnUse" gradientTransform="translate(435.102 189.291) rotate(80.2263) scale(55.4897)">
<stop stop-color="#FFC700"/>
<stop offset="0.5" stop-color="#9F790A"/>
<stop offset="1" stop-color="#0B0018"/>
</radialGradient>
<radialGradient id="paint3_radial" cx="0" cy="0" r="1" gradientUnits="userSpaceOnUse" gradientTransform="translate(563.177 21.3159) rotate(80.2263) scale(27.7449)">
<stop stop-color="#4200FF"/>
<stop offset="0.515625" stop-color="#2D00A7"/>
<stop offset="1" stop-color="#0B0018"/>
</radialGradient>
<radialGradient id="paint4_radial" cx="0" cy="0" r="1" gradientUnits="userSpaceOnUse" gradientTransform="translate(182.475 76.8165) rotate(117.494) scale(41.6173)">
<stop stop-color="#FFC700"/>
<stop offset="0.5" stop-color="#9F790A"/>
<stop offset="1" stop-color="#0B0018"/>
</radialGradient>
</defs>
</svg>
