<svg width="480" height="168" viewBox="0 0 480 168" fill="none" xmlns="http://www.w3.org/2000/svg">
<path d="M13.6314 1.90625L467.05 2.71361C473.385 2.71361 479.045 1.77231 479.045 15.3538L478.49 164.67H2.18933V14.7987C2.18933 8.1031 2.83763 1.90625 13.6314 1.90625Z" fill="#AAB2AB"/>
<path d="M138.089 78.3018C138.108 108.419 113.702 132.847 83.5822 132.868C53.4622 132.886 29.0272 108.484 29.0098 78.3679C29.0098 78.3446 29.0098 78.3251 29.0098 78.3018C28.9923 48.1812 53.3961 23.7529 83.5163 23.7354C113.64 23.7159 138.071 48.1192 138.089 78.2358C138.089 78.2552 138.089 78.2785 138.089 78.3018Z" fill="white"/>
<path d="M127.885 33.8815C139.979 45.9763 146.027 60.7843 146.027 78.3016C146.027 95.8208 140.084 110.47 128.197 122.252C115.583 134.661 100.674 140.864 83.4714 140.864C66.4763 140.864 51.8258 134.714 39.5239 122.407C27.22 110.105 21.0691 95.4036 21.0691 78.3016C21.0691 61.2015 27.22 46.3954 39.5239 33.8815C51.5134 21.7848 66.1638 15.7393 83.4714 15.7393C100.989 15.7393 115.791 21.7848 127.885 33.8815ZM47.6663 42.0171C37.4412 52.3439 32.3306 64.4406 32.3306 78.317C32.3306 92.1896 37.3908 104.183 47.5091 114.299C57.6293 124.418 69.6769 129.478 83.6559 129.478C97.6348 129.478 109.785 124.367 120.113 114.145C129.919 104.653 134.824 92.7136 134.824 78.317C134.824 64.0292 129.839 51.9034 119.876 41.9394C109.915 31.9794 97.8426 26.9976 83.6559 26.9976C69.4694 26.9976 57.4702 32.0048 47.6663 42.0171ZM74.5741 72.2133C73.0115 68.8075 70.6727 67.1053 67.5535 67.1053C62.0392 67.1053 59.2831 70.8161 59.2831 78.2374C59.2831 85.6609 62.0392 89.3717 67.5535 89.3717C71.1948 89.3717 73.7958 87.563 75.3563 83.9414L82.9998 88.0113C79.3566 94.4837 73.891 97.7227 66.6026 97.7227C60.9816 97.7227 56.4784 95.9993 53.0971 92.5545C49.7102 89.1078 48.0215 84.3568 48.0215 78.3016C48.0215 72.3492 49.7645 67.6254 53.2525 64.1262C56.7405 60.6291 61.0843 58.8784 66.2919 58.8784C73.9956 58.8784 79.5119 61.9139 82.8464 67.9786L74.5741 72.2133ZM110.535 72.2133C108.97 68.8075 106.678 67.1053 103.656 67.1053C98.0307 67.1053 95.2164 70.8161 95.2164 78.2374C95.2164 85.6609 98.0307 89.3717 103.656 89.3717C107.303 89.3717 109.857 87.563 111.315 83.9414L119.129 88.0113C115.492 94.4837 110.034 97.7227 102.759 97.7227C97.1456 97.7227 92.6523 95.9993 89.2731 92.5545C85.8997 89.1078 84.2091 84.3568 84.2091 78.3016C84.2091 72.3492 85.9249 67.6254 89.3546 64.1262C92.7823 60.6291 97.1456 58.8784 102.448 58.8784C110.139 58.8784 115.647 61.9139 118.97 67.9786L110.535 72.2133Z" fill="black"/>
<path d="M471.013 0H8.98673C4.03142 0 0 4.03291 0 8.98766V165.97C0 167.09 0.90841 168 2.02832 168H477.97C479.09 168 480 167.09 480 165.97V8.98772C480 4.03293 475.969 0 471.013 0ZM8.98673 4.0601H471.013C473.731 4.0601 475.939 6.27063 475.939 8.98772C475.939 8.98772 475.939 72.2623 475.939 117.967H145.711C133.607 139.849 110.288 154.708 83.5261 154.708C56.7523 154.708 33.4392 139.863 21.3411 117.967H4.0567C4.0567 72.2623 4.0567 8.98772 4.0567 8.98772C4.05662 6.27063 6.26937 4.0601 8.98673 4.0601Z" fill="black"/>
<path d="M345.055 150.929C345.374 151.548 345.801 152.049 346.333 152.433C346.864 152.816 347.485 153.101 348.2 153.285C348.918 153.472 349.659 153.565 350.424 153.565C350.94 153.565 351.496 153.522 352.089 153.435C352.68 153.35 353.235 153.181 353.755 152.934C354.271 152.688 354.706 152.346 355.048 151.913C355.397 151.481 355.568 150.931 355.568 150.262C355.568 149.546 355.339 148.965 354.881 148.519C354.427 148.073 353.825 147.704 353.083 147.405C352.346 147.11 351.503 146.85 350.568 146.627C349.628 146.404 348.677 146.157 347.715 145.883C346.725 145.637 345.762 145.334 344.823 144.975C343.887 144.618 343.045 144.152 342.303 143.584C341.562 143.015 340.964 142.305 340.506 141.451C340.052 140.597 339.822 139.564 339.822 138.353C339.822 136.991 340.114 135.811 340.692 134.809C341.274 133.808 342.035 132.973 342.975 132.304C343.91 131.636 344.974 131.141 346.162 130.819C347.346 130.499 348.534 130.338 349.718 130.338C351.103 130.338 352.431 130.493 353.704 130.804C354.974 131.112 356.107 131.615 357.093 132.308C358.083 133.001 358.867 133.886 359.45 134.963C360.028 136.04 360.319 137.346 360.319 138.879H354.667C354.617 138.087 354.45 137.431 354.17 136.913C353.887 136.393 353.51 135.986 353.044 135.687C352.575 135.392 352.039 135.18 351.437 135.058C350.832 134.934 350.176 134.872 349.461 134.872C348.996 134.872 348.526 134.922 348.06 135.019C347.59 135.12 347.167 135.293 346.787 135.539C346.402 135.788 346.088 136.096 345.843 136.467C345.599 136.839 345.475 137.309 345.475 137.878C345.475 138.398 345.572 138.819 345.77 139.139C345.968 139.461 346.36 139.758 346.938 140.03C347.517 140.302 348.32 140.575 349.345 140.847C350.37 141.119 351.709 141.466 353.367 141.885C353.86 141.984 354.543 142.165 355.42 142.425C356.298 142.685 357.167 143.098 358.033 143.667C358.899 144.238 359.644 144.998 360.277 145.949C360.905 146.902 361.22 148.121 361.22 149.606C361.22 150.819 360.983 151.944 360.513 152.983C360.044 154.023 359.345 154.92 358.417 155.673C357.489 156.43 356.34 157.016 354.97 157.437C353.596 157.858 352.004 158.068 350.203 158.068C348.743 158.068 347.326 157.887 345.952 157.528C344.582 157.169 343.367 156.604 342.315 155.836C341.267 155.067 340.432 154.087 339.811 152.899C339.194 151.71 338.899 150.301 338.922 148.666H344.574C344.574 149.557 344.733 150.312 345.055 150.929Z" fill="white"/>
<path d="M377.877 130.99L387.788 157.478H381.736L379.733 151.578H369.822L367.746 157.478H361.884L371.903 130.99H377.877ZM378.211 147.231L374.873 137.519H374.799L371.344 147.231H378.211Z" fill="white"/>
<path d="M239.986 130.989C241.248 130.989 242.401 131.102 243.441 131.323C244.482 131.546 245.374 131.911 246.12 132.418C246.861 132.924 247.44 133.598 247.847 134.438C248.255 135.278 248.461 136.317 248.461 137.553C248.461 138.888 248.158 139.998 247.548 140.889C246.943 141.78 246.042 142.508 244.854 143.076C246.493 143.546 247.715 144.369 248.523 145.545C249.33 146.721 249.734 148.138 249.734 149.795C249.734 151.13 249.474 152.287 248.954 153.265C248.433 154.242 247.731 155.039 246.854 155.658C245.972 156.277 244.967 156.735 243.841 157.03C242.711 157.329 241.555 157.477 240.363 157.477H227.498V130.989H239.986V130.989ZM239.241 141.702C240.281 141.702 241.135 141.456 241.807 140.963C242.475 140.468 242.808 139.668 242.808 138.558C242.808 137.941 242.696 137.435 242.475 137.041C242.249 136.645 241.954 136.338 241.582 136.115C241.209 135.894 240.782 135.738 240.301 135.653C239.815 135.566 239.315 135.523 238.795 135.523H233.337V141.702H239.241ZM239.583 152.943C240.153 152.943 240.697 152.889 241.217 152.776C241.737 152.666 242.199 152.479 242.595 152.221C242.991 151.961 243.305 151.608 243.542 151.164C243.779 150.719 243.895 150.15 243.895 149.458C243.895 148.099 243.511 147.129 242.742 146.548C241.974 145.968 240.957 145.677 239.695 145.677H233.337V152.943H239.583Z" fill="white"/>
<path d="M250.763 130.989H257.296L263.499 141.45L269.664 130.989H276.158L266.325 147.311V157.477H260.487V147.164L250.763 130.989Z" fill="white"/>
<path d="M409.612 59.9234C409.628 83.3038 390.688 102.273 367.303 102.29C343.922 102.308 324.951 83.3677 324.931 59.9855C324.931 59.9661 324.931 59.9428 324.931 59.9234C324.916 36.5412 343.86 17.5761 367.241 17.5567C390.626 17.5392 409.597 36.481 409.612 59.8614C409.612 59.8846 409.612 59.9021 409.612 59.9234Z" fill="white"/>
<path d="M366.969 13.5449C354.12 13.5449 343.246 18.028 334.345 26.9925C325.211 36.2694 320.646 47.2463 320.646 59.9233C320.646 72.6003 325.211 83.5017 334.345 92.6212C343.475 101.743 354.353 106.304 366.969 106.304C379.741 106.304 390.808 101.704 400.179 92.5047C408.999 83.7714 413.413 72.909 413.413 59.9233C413.413 46.9395 408.921 35.9587 399.942 26.9925C390.963 18.028 379.974 13.5449 366.969 13.5449ZM367.085 21.8921C377.613 21.8921 386.553 25.6009 393.91 33.0224C401.336 40.3663 405.051 49.3325 405.051 59.9233C405.051 70.5898 401.417 79.4416 394.139 86.4768C386.476 94.0516 377.458 97.838 367.085 97.838C356.713 97.838 347.773 94.0884 340.265 86.5932C332.757 79.0922 329.003 70.2055 329.003 59.9233C329.003 49.6431 332.796 40.6749 340.381 33.0224C347.656 25.6009 356.558 21.8921 367.085 21.8921Z" fill="black"/>
<path d="M346.41 53.377C348.258 41.7073 356.476 35.4697 366.771 35.4697C381.581 35.4697 390.602 46.2137 390.602 60.5405C390.602 74.5198 381.002 85.3802 366.538 85.3802C356.589 85.3802 347.684 79.2572 346.061 67.2438H357.746C358.095 73.4815 362.144 75.6765 367.928 75.6765C374.52 75.6765 378.805 69.5533 378.805 60.193C378.805 50.3748 375.102 45.1754 368.157 45.1754C363.068 45.1754 358.673 47.0251 357.746 53.377L361.146 53.3596L351.946 62.5549L342.75 53.3596L346.41 53.377Z" fill="black"/>
<path d="M253.438 103.82C277.163 103.82 296.395 84.5897 296.395 60.868C296.395 37.1463 277.163 17.916 253.438 17.916C229.714 17.916 210.482 37.1463 210.482 60.868C210.482 84.5897 229.714 103.82 253.438 103.82Z" fill="white"/>
<path d="M265.871 48.4399C265.871 46.7845 264.528 45.4453 262.874 45.4453H243.903C242.25 45.4453 240.906 46.7844 240.906 48.4399V67.4109H246.197V89.8771H260.576V67.4109H265.871V48.4399H265.871Z" fill="black"/>
<path d="M253.389 42.9456C256.972 42.9456 259.877 40.0409 259.877 36.4577C259.877 32.8745 256.972 29.9697 253.389 29.9697C249.805 29.9697 246.9 32.8745 246.9 36.4577C246.9 40.0409 249.805 42.9456 253.389 42.9456Z" fill="black"/>
<path fill-rule="evenodd" clip-rule="evenodd" d="M253.329 13.5449C240.483 13.5449 229.604 18.0261 220.703 26.9944C211.569 36.2674 207.003 47.2462 207.003 59.9213C207.003 72.5965 211.569 83.4996 220.703 92.6212C229.837 101.741 240.714 106.302 253.329 106.302C266.1 106.302 277.172 101.704 286.535 92.5028C295.363 83.7713 299.773 72.9089 299.773 59.9213C299.773 46.9337 295.285 35.9587 286.306 26.9944C277.327 18.0261 266.333 13.5449 253.329 13.5449ZM253.445 21.8902C263.973 21.8902 272.913 25.6009 280.266 33.0224C287.7 40.3643 291.415 49.3326 291.415 59.9213C291.415 70.5877 287.777 79.4415 280.499 86.4748C272.836 94.0496 263.818 97.836 253.445 97.836C243.073 97.836 234.132 94.0884 226.627 86.5893C219.115 79.0922 215.363 70.2035 215.363 59.9213C215.363 49.6411 219.156 40.6748 226.741 33.0224C234.018 25.6009 242.921 21.8902 253.445 21.8902Z" fill="black"/>
<g style="mix-blend-mode:color">
<path d="M0 2C0 0.895433 0.895431 0 2 0H478C479.104 0 480 0.895431 480 2V168H0V2Z" fill="#38FBFD"/>
</g>
</svg>
